<?xml version="1.0" encoding="UTF-8"?>
<svg version="1.1" xmlns="http://www.w3.org/2000/svg" width="1227" height="1226">
<path d="M0 0 C1.55692062 -0.00642769 1.55692062 -0.00642769 3.14529419 -0.01298523 C5.33562492 -0.01871456 7.52597468 -0.01923912 9.71630859 -0.01489258 C13.05209115 -0.01173599 16.3869834 -0.03519832 19.72265625 -0.06054688 C21.85676972 -0.06282047 23.99088556 -0.06352309 26.125 -0.0625 C27.1148288 -0.07170975 28.10465759 -0.08091949 29.1244812 -0.09040833 C35.21236026 -0.05011174 39.61886856 0.84930661 45.1953125 3.30078125 C46.50114945 3.76547385 47.81070183 4.21996347 49.125 4.66015625 C65.75623571 10.45387551 77.9826677 20.75756363 89.1953125 34.30078125 C89.78441406 34.94402344 90.37351562 35.58726562 90.98046875 36.25 C92.1953125 38.30078125 92.1953125 38.30078125 92.16015625 40.8125 C90.93875518 43.96242907 89.46530072 45.1249019 86.7578125 47.11328125 C85.95472656 47.71785156 85.15164063 48.32242188 84.32421875 48.9453125 C82.1953125 50.30078125 82.1953125 50.30078125 80.1953125 50.30078125 C80.1953125 50.96078125 80.1953125 51.62078125 80.1953125 52.30078125 C76.17901817 55.81503879 72.67985879 58.45941592 67.1640625 58.109375 C63.53506498 56.61889388 61.99130718 53.27762394 59.98828125 50.05078125 C56.50873387 44.71395912 52.07654883 39.90886831 46.1953125 37.30078125 C46.1953125 36.64078125 46.1953125 35.98078125 46.1953125 35.30078125 C45.6796875 35.19765625 45.1640625 35.09453125 44.6328125 34.98828125 C42.05601201 34.26149137 39.69728888 33.23995193 37.26953125 32.1171875 C31.61229475 29.89051626 26.11507759 28.90896042 20.0703125 28.61328125 C19.32676514 28.57638184 18.58321777 28.53948242 17.81713867 28.50146484 C2.76606187 27.87130704 -10.75280019 29.92559467 -23.1328125 39.1640625 C-24.8046875 40.30078125 -24.8046875 40.30078125 -26.8046875 40.30078125 C-26.8046875 40.96078125 -26.8046875 41.62078125 -26.8046875 42.30078125 C-27.6503125 42.96078125 -28.4959375 43.62078125 -29.3671875 44.30078125 C-39.21728982 52.24591095 -45.90124987 66.59889332 -47.59082031 78.98583984 C-48.08230612 84.30578099 -48.03217471 89.6499356 -48.0546875 94.98828125 C-48.0753125 96.19162109 -48.0959375 97.39496094 -48.1171875 98.63476562 C-48.19182241 115.90341905 -42.83263349 130.86597024 -30.85351562 143.37915039 C-18.51526019 155.76606493 -3.42000235 160.23113179 13.7578125 160.42578125 C15.57057259 160.3976169 17.38318749 160.35641667 19.1953125 160.30078125 C19.99453125 160.28402344 20.79375 160.26726562 21.6171875 160.25 C34.67701208 159.50311461 45.59859535 153.85547307 55.1953125 145.30078125 C55.5253125 144.64078125 55.8553125 143.98078125 56.1953125 143.30078125 C56.8553125 143.30078125 57.5153125 143.30078125 58.1953125 143.30078125 C58.47761719 142.70910156 58.75992188 142.11742187 59.05078125 141.5078125 C60.08226051 139.51878253 61.21928457 137.81404559 62.5078125 135.98828125 C65.01438526 132.05831928 66.45409766 127.91988983 67.86328125 123.5078125 C68.20280823 122.46639099 68.20280823 122.46639099 68.54919434 121.40393066 C69.10255082 119.70438797 69.64957747 118.00278655 70.1953125 116.30078125 C68.88860596 116.29667236 67.58189941 116.29256348 66.2355957 116.28833008 C61.38037855 116.26653321 56.52597116 116.21223723 51.67114258 116.14819336 C49.57128672 116.12501829 47.4713147 116.11061881 45.37133789 116.10522461 C42.34968725 116.09593162 39.32986233 116.05493279 36.30859375 116.0078125 C35.37195389 116.01174515 34.43531403 116.0156778 33.47029114 116.01972961 C28.97089599 115.91935653 26.81979545 115.75580033 23.09594727 113.04248047 C21.14471382 110.22779176 20.58407579 109.08042094 20.671875 105.7265625 C20.68347656 104.89447266 20.69507813 104.06238281 20.70703125 103.20507812 C20.74441406 102.34978516 20.78179688 101.49449219 20.8203125 100.61328125 C20.83449219 99.74638672 20.84867188 98.87949219 20.86328125 97.98632812 C21.01074617 91.6699139 21.01074617 91.6699139 22.1953125 89.30078125 C22.8553125 89.30078125 23.5153125 89.30078125 24.1953125 89.30078125 C24.1953125 88.64078125 24.1953125 87.98078125 24.1953125 87.30078125 C27.11272857 85.84207321 29.69404157 86.14924544 32.95239258 86.1237793 C33.64691025 86.1172081 34.34142792 86.1106369 35.05699158 86.10386658 C37.35961003 86.08412667 39.66216324 86.07246929 41.96484375 86.0625 C42.75111334 86.05842447 43.53738293 86.05434895 44.34747887 86.05014992 C48.50940056 86.02928584 52.67128926 86.01498583 56.83325195 86.00561523 C61.13086069 85.99455226 65.42795143 85.96015514 69.72537708 85.92044353 C73.03082742 85.89428973 76.33615413 85.88592451 79.64169884 85.88233376 C81.22573023 85.87746426 82.80975597 85.86583982 84.39368629 85.84729576 C86.61289036 85.82293006 88.83075177 85.82386382 91.05004883 85.83081055 C92.94295403 85.82201118 92.94295403 85.82201118 94.87409973 85.81303406 C98.77950972 86.38657538 100.43336069 87.53351075 103.1953125 90.30078125 C103.81054688 92.30517578 103.81054688 92.30517578 103.7890625 94.43359375 C103.78898193 95.23047607 103.78890137 96.0273584 103.78881836 96.84838867 C103.74253296 98.124198 103.74253296 98.124198 103.6953125 99.42578125 C103.66546265 100.756698 103.66546265 100.756698 103.63500977 102.11450195 C102.74000568 128.8055654 93.46628656 150.62803415 74.1953125 169.30078125 C71.6508157 171.55150844 69.05598747 173.47469822 66.1953125 175.30078125 C65.43992187 175.80996094 64.68453125 176.31914063 63.90625 176.84375 C57.64978677 180.86576208 51.28791087 183.169126 44.1953125 185.30078125 C42.59429688 185.84992188 42.59429688 185.84992188 40.9609375 186.41015625 C38.1953125 187.30078125 38.1953125 187.30078125 36.1953125 187.30078125 C36.1953125 187.96078125 36.1953125 188.62078125 36.1953125 189.30078125 C20.3553125 189.30078125 4.5153125 189.30078125 -11.8046875 189.30078125 C-12.1346875 188.64078125 -12.4646875 187.98078125 -12.8046875 187.30078125 C-14.84458145 186.67443666 -14.84458145 186.67443666 -17.3671875 186.17578125 C-33.80350567 181.9066077 -50.10095998 171.45244646 -60.8046875 158.30078125 C-62.046875 155.53515625 -62.046875 155.53515625 -62.8046875 153.30078125 C-63.4646875 153.30078125 -64.1246875 153.30078125 -64.8046875 153.30078125 C-75.63909557 135.36889494 -82.22524961 117.20475796 -82.1171875 96.05078125 C-82.11444824 94.95830078 -82.11170898 93.86582031 -82.10888672 92.74023438 C-81.99931031 84.23105961 -80.92460584 76.55447348 -78.8046875 68.30078125 C-78.57504536 66.82168833 -78.34582371 65.34253 -78.1171875 63.86328125 C-73.20452457 42.48111717 -55.72952754 22.72884521 -37.8046875 11.30078125 C-31.13227465 7.44377599 -24.087929 4.76803318 -16.8046875 2.30078125 C-15.98307129 1.95853516 -15.16145508 1.61628906 -14.31494141 1.26367188 C-9.50994712 -0.05437636 -4.96083629 -0.0045492 0 0 Z " fill="#000000" transform="translate(617.8046875,612.69921875)"/>
<path d="M0 0 C1.505839 -0.0099852 1.505839 -0.0099852 3.042099 -0.02017212 C5.1643593 -0.03027592 7.28665122 -0.03498984 9.40893555 -0.03466797 C12.61757505 -0.03901539 15.82480899 -0.07528873 19.03320312 -0.11328125 C29.89393511 -0.17427253 39.48695153 -0.0508573 49.58984375 4.3359375 C50.73731079 4.81401855 50.73731079 4.81401855 51.90795898 5.30175781 C53.90650012 6.1856609 55.84029525 7.13773722 57.77734375 8.1484375 C58.44443359 8.48955566 59.11152344 8.83067383 59.79882812 9.18212891 C65.33161086 12.07280742 70.90741118 15.17127391 75.58984375 19.3359375 C75.58984375 19.9959375 75.58984375 20.6559375 75.58984375 21.3359375 C76.15445313 21.56667969 76.7190625 21.79742188 77.30078125 22.03515625 C80.18479114 23.67402194 82.00270112 25.68104764 84.21484375 28.1484375 C84.99085938 29.00050781 85.766875 29.85257813 86.56640625 30.73046875 C88.50819023 33.23079676 89.59313121 35.35115856 90.58984375 38.3359375 C91.24984375 38.3359375 91.90984375 38.3359375 92.58984375 38.3359375 C92.31725981 41.75508826 91.92867886 43.03168936 89.33203125 45.36328125 C88.38585937 45.99363281 87.4396875 46.62398437 86.46484375 47.2734375 C83.01046035 49.62241821 79.88188587 51.91170011 76.90234375 54.8359375 C73.95899183 57.3518026 71.55581867 58.53439999 67.62890625 58.25390625 C63.71802614 56.49326099 61.82542775 52.66957367 59.5546875 49.17578125 C57.73833546 46.55055673 56.05688181 44.76394507 53.58984375 42.7734375 C52.59984375 41.9690625 51.60984375 41.1646875 50.58984375 40.3359375 C50.58984375 39.6759375 50.58984375 39.0159375 50.58984375 38.3359375 C49.95046875 38.0884375 49.31109375 37.8409375 48.65234375 37.5859375 C45.45100673 36.27926933 42.30908807 34.86949267 39.1640625 33.43359375 C38.31457031 33.07136719 37.46507812 32.70914063 36.58984375 32.3359375 C35.71465088 31.95429443 35.71465088 31.95429443 34.82177734 31.56494141 C29.78888947 29.50134556 25.25591151 28.77457718 19.83984375 28.5859375 C18.65588013 28.53735596 18.65588013 28.53735596 17.44799805 28.48779297 C2.91661237 27.99269118 -10.17791771 29.97308054 -22.41015625 38.3359375 C-23.07015625 38.3359375 -23.73015625 38.3359375 -24.41015625 38.3359375 C-24.41015625 38.9959375 -24.41015625 39.6559375 -24.41015625 40.3359375 C-26.01953125 41.88671875 -26.01953125 41.88671875 -28.16015625 43.6484375 C-40.1707142 53.907016 -46.68282516 68.7552723 -48.41015625 84.3359375 C-49.67680333 103.04223959 -48.35966995 121.90341687 -36.1875 137.11328125 C-34.41015625 139.3359375 -34.41015625 139.3359375 -34.41015625 141.3359375 C-33.75015625 141.3359375 -33.09015625 141.3359375 -32.41015625 141.3359375 C-31.24802481 142.49806894 -30.08896086 143.66342487 -28.9453125 144.84375 C-17.01172923 156.4433144 -2.65230242 160.25436012 13.58984375 160.4609375 C30.22051972 160.22373293 43.43775703 156.23734437 55.96484375 144.5859375 C63.8604928 136.04064644 67.4021232 126.3221156 70.58984375 115.3359375 C68.62978394 115.3673584 68.62978394 115.3673584 66.63012695 115.39941406 C61.77542101 115.47189303 56.92076277 115.51776625 52.06567383 115.55566406 C49.96565708 115.57576147 47.86569617 115.60304416 45.76586914 115.63769531 C42.74481417 115.6862952 39.72449998 115.70892512 36.703125 115.7265625 C35.29816521 115.75753021 35.29816521 115.75753021 33.86482239 115.78912354 C29.68722362 115.79055693 27.20478186 115.67850354 23.49926758 113.61425781 C21.30580986 110.99702888 20.94860977 109.86558989 20.92578125 106.4921875 C20.91933594 105.57566406 20.91289062 104.65914062 20.90625 103.71484375 C20.93525391 102.28978516 20.93525391 102.28978516 20.96484375 100.8359375 C20.94550781 99.88589844 20.92617188 98.93585938 20.90625 97.95703125 C20.91269531 97.04050781 20.91914063 96.12398437 20.92578125 95.1796875 C20.9314209 94.34630859 20.93706055 93.51292969 20.94287109 92.65429688 C21.90105485 89.22074482 23.63269834 88.25348537 26.58984375 86.3359375 C29.91105652 85.84819031 29.91105652 85.84819031 33.73510742 85.8659668 C34.43488205 85.8637764 35.13465668 85.861586 35.8556366 85.85932922 C38.15685089 85.85702713 40.45676997 85.88321652 42.7578125 85.91015625 C44.36012872 85.91508196 45.96245071 85.91837966 47.56477356 85.92012024 C50.91633595 85.92774883 54.26746954 85.94827822 57.61889648 85.97924805 C61.91988266 86.01891808 66.22059069 86.03687346 70.52173901 86.04655743 C74.62130131 86.05651639 78.72079546 86.07640693 82.8203125 86.09765625 C83.99682405 86.10274987 83.99682405 86.10274987 85.1971035 86.1079464 C87.40907335 86.11949335 89.62086511 86.13800761 91.83276367 86.15893555 C93.09231369 86.16877975 94.35186371 86.17862396 95.64958191 86.18876648 C98.58984375 86.3359375 98.58984375 86.3359375 100.58984375 87.3359375 C100.58984375 87.9959375 100.58984375 88.6559375 100.58984375 89.3359375 C101.24984375 89.3359375 101.90984375 89.3359375 102.58984375 89.3359375 C108.12819599 105.95099421 100.45103293 127.8841374 94.58984375 143.3359375 C93.92984375 143.3359375 93.26984375 143.3359375 92.58984375 143.3359375 C92.49445313 143.8825 92.3990625 144.4290625 92.30078125 144.9921875 C91.3949778 147.97835271 89.91617978 150.22291507 88.21484375 152.8359375 C87.30605469 154.24359375 87.30605469 154.24359375 86.37890625 155.6796875 C83.10186454 160.54516427 83.10186454 160.54516427 81.58984375 162.3359375 C80.92984375 162.3359375 80.26984375 162.3359375 79.58984375 162.3359375 C79.35007812 162.91730469 79.1103125 163.49867188 78.86328125 164.09765625 C72.33339273 175.575037 54.47191814 182.47625696 42.58984375 186.3359375 C41.66042969 186.50351562 40.73101562 186.67109375 39.7734375 186.84375 C38.69255859 187.08738281 38.69255859 187.08738281 37.58984375 187.3359375 C37.25984375 187.9959375 36.92984375 188.6559375 36.58984375 189.3359375 C20.74984375 189.3359375 4.90984375 189.3359375 -11.41015625 189.3359375 C-11.41015625 188.6759375 -11.41015625 188.0159375 -11.41015625 187.3359375 C-12.35890625 187.2534375 -13.30765625 187.1709375 -14.28515625 187.0859375 C-22.50840488 185.88052154 -29.81433209 181.72659074 -36.96484375 177.703125 C-39.08764979 176.51625261 -41.22529699 175.40296179 -43.41015625 174.3359375 C-43.41015625 173.6759375 -43.41015625 173.0159375 -43.41015625 172.3359375 C-44.09078125 172.1296875 -44.77140625 171.9234375 -45.47265625 171.7109375 C-49.32655 169.90698723 -52.48803389 167.434903 -55.41015625 164.3359375 C-55.41015625 163.6759375 -55.41015625 163.0159375 -55.41015625 162.3359375 C-56.07015625 162.3359375 -56.73015625 162.3359375 -57.41015625 162.3359375 C-59.23749884 160.14494465 -60.92983523 157.95708237 -62.59765625 155.6484375 C-63.08943359 154.97087402 -63.58121094 154.29331055 -64.08789062 153.59521484 C-72.01558464 142.46994831 -78.15965586 131.09144183 -79.41015625 117.3359375 C-80.07015625 117.3359375 -80.73015625 117.3359375 -81.41015625 117.3359375 C-81.41015625 102.8159375 -81.41015625 88.2959375 -81.41015625 73.3359375 C-80.75015625 73.3359375 -80.09015625 73.3359375 -79.41015625 73.3359375 C-79.3121875 72.75328125 -79.21421875 72.170625 -79.11328125 71.5703125 C-77.24473258 61.32551117 -74.37385001 52.17363244 -68.6796875 43.39453125 C-67.26097557 41.2697481 -67.26097557 41.2697481 -66.41015625 38.3359375 C-65.75015625 38.3359375 -65.09015625 38.3359375 -64.41015625 38.3359375 C-64.10078125 37.315 -64.10078125 37.315 -63.78515625 36.2734375 C-61.9534905 32.36033339 -59.33785482 29.4796749 -56.41015625 26.3359375 C-55.89324219 25.77132812 -55.37632812 25.20671875 -54.84375 24.625 C-53.41015625 23.3359375 -53.41015625 23.3359375 -51.41015625 23.3359375 C-51.41015625 22.6759375 -51.41015625 22.0159375 -51.41015625 21.3359375 C-40.90810207 12.44354396 -29.14127088 7.11185619 -16.41015625 2.3359375 C-15.56163086 1.98539307 -14.71310547 1.63484863 -13.83886719 1.27368164 C-9.19126016 0.00257237 -4.79805464 0.01116655 0 0 Z " fill="#000000" transform="translate(306.41015625,612.6640625)"/>
<path d="M0 0 C1.57491211 -0.0299707 1.57491211 -0.0299707 3.18164062 -0.06054688 C4.19291016 -0.05990234 5.20417969 -0.05925781 6.24609375 -0.05859375 C7.63139282 -0.06137329 7.63139282 -0.06137329 9.04467773 -0.06420898 C12.46399691 0.61713504 13.45753026 1.66148199 15.5625 4.4375 C15.93673266 7.23367943 16.06989141 9.62785414 16.01660156 12.41894531 C16.0170837 13.23222668 16.01756584 14.04550804 16.01806259 14.8834343 C16.01508127 17.51127922 15.98464285 20.13798361 15.953125 22.765625 C15.94724249 24.38980564 15.94316262 26.01399385 15.94091797 27.63818359 C15.91996226 33.65473818 15.86411717 39.67113034 15.8125 45.6875 C15.73 59.135 15.6475 72.5825 15.5625 86.4375 C42.6225 86.4375 69.6825 86.4375 97.5625 86.4375 C97.40416534 59.63118697 97.40416534 59.63118697 97.20214844 32.82519531 C97.18408203 27.63818359 97.18408203 27.63818359 97.1807251 25.20916748 C97.17458658 23.51430054 97.1605259 21.81945097 97.14019775 20.12469482 C97.1109275 17.55580344 97.10687543 14.98797841 97.10839844 12.41894531 C97.094006 11.66513203 97.07961357 10.91131874 97.064785 10.13466263 C97.09241059 6.655007 97.303589 4.77908709 99.43351746 1.96902466 C102.09887044 0.05165157 103.61572475 -0.05247392 106.87890625 -0.0234375 C107.89017578 -0.01957031 108.90144531 -0.01570312 109.94335938 -0.01171875 C111.51827148 0.02501953 111.51827148 0.02501953 113.125 0.0625 C114.70571289 0.06443359 114.70571289 0.06443359 116.31835938 0.06640625 C124.14064022 0.15626015 124.14064022 0.15626015 127.5625 2.4375 C127.94281673 5.47072506 127.94281673 5.47072506 127.95018005 9.45335388 C127.95825836 10.54917592 127.95825836 10.54917592 127.96649987 11.66713578 C127.98086669 14.1277873 127.97365455 16.58790745 127.96655273 19.04858398 C127.97225178 20.80754024 127.97921422 22.56649279 127.98735046 24.32543945 C128.00534892 29.11261284 128.00410095 33.89960361 127.99840808 38.68680072 C127.99532575 42.678069 128.00139801 46.66930172 128.00744683 50.66056496 C128.02151251 60.07395143 128.01991391 69.4872472 128.00854492 78.90063477 C127.9970622 88.62324611 128.01113733 98.34558167 128.0379414 108.06815666 C128.06006852 116.40534966 128.06674252 124.74245591 128.06086498 133.07967621 C128.05748696 138.06364133 128.05996628 143.04742964 128.07711601 148.03137016 C128.09253552 152.71735731 128.08868548 157.40293467 128.06981087 162.08890533 C128.06611103 163.81146985 128.06927382 165.53406438 128.07969666 167.25660133 C128.0928139 169.60310025 128.08144343 171.94822392 128.06370544 174.29466248 C128.06349616 175.60930701 128.06328688 176.92395155 128.06307125 178.2784338 C127.5625 181.4375 127.5625 181.4375 125.67706394 183.36065769 C123.16837855 184.63820646 121.49205935 184.81075086 118.68359375 184.80078125 C117.76255859 184.80013672 116.84152344 184.79949219 115.89257812 184.79882812 C114.93802734 184.78271484 113.98347656 184.76660156 113 184.75 C111.56237305 184.75483398 111.56237305 184.75483398 110.09570312 184.75976562 C102.96342997 184.70478664 102.96342997 184.70478664 99.5625 182.4375 C99.5625 181.7775 99.5625 181.1175 99.5625 180.4375 C98.9025 180.4375 98.2425 180.4375 97.5625 180.4375 C97.5625 157.9975 97.5625 135.5575 97.5625 112.4375 C70.5025 112.4375 43.4425 112.4375 15.5625 112.4375 C15.7603754 134.63653419 15.7603754 134.63653419 16.01293945 156.83496094 C16.03552246 161.13330078 16.03552246 161.13330078 16.03971863 163.14703369 C16.04738515 164.55027191 16.06494784 165.95347763 16.09037781 167.35650635 C16.12702608 169.48532088 16.13202929 171.61212785 16.13012695 173.74121094 C16.14123001 174.94034119 16.15233307 176.13947144 16.16377258 177.37493896 C15.5625 180.4375 15.5625 180.4375 13.17901611 182.82366943 C10.35986744 184.56248093 8.89431128 184.95091751 5.62109375 184.96875 C4.25114258 184.97648437 4.25114258 184.97648437 2.85351562 184.984375 C1.91185547 184.96890625 0.97019531 184.9534375 0 184.9375 C-1.41829102 184.96070313 -1.41829102 184.96070313 -2.86523438 184.984375 C-3.77724609 184.97921875 -4.68925781 184.9740625 -5.62890625 184.96875 C-6.45592041 184.96423828 -7.28293457 184.95972656 -8.13500977 184.95507812 C-11.33708182 184.23528248 -12.41158581 183.00276232 -14.4375 180.4375 C-14.91851807 177.37493896 -14.91851807 177.37493896 -14.89160156 173.74121094 C-14.8920837 173.06670017 -14.89256584 172.39218941 -14.89306259 171.69723892 C-14.89008539 169.52157406 -14.85966866 167.34729341 -14.828125 165.171875 C-14.82224115 163.8256903 -14.8181621 162.47949647 -14.81591797 161.13330078 C-14.79497775 156.1512273 -14.73913249 151.16934993 -14.6875 146.1875 C-14.605 135.05 -14.5225 123.9125 -14.4375 112.4375 C-43.1475 112.4375 -71.8575 112.4375 -101.4375 112.4375 C-101.4375 103.8575 -101.4375 95.2775 -101.4375 86.4375 C-72.7275 86.4375 -44.0175 86.4375 -14.4375 86.4375 C-14.5562844 59.25711321 -14.5562844 59.25711321 -14.70776367 32.0769043 C-14.72131348 26.82189941 -14.72131348 26.82189941 -14.72383118 24.36238098 C-14.7284402 22.64332247 -14.73899614 20.92427371 -14.75422668 19.20527649 C-14.77613698 16.60241832 -14.77921973 14.00015315 -14.77807617 11.3972168 C-14.7888705 10.63043704 -14.79966482 9.86365728 -14.81078625 9.07364178 C-14.78046871 3.93050893 -14.78046871 3.93050893 -13.06549072 1.465271 C-9.33500843 -0.88982934 -4.26180494 -0.02867269 0 0 Z " fill="#5D5D5D" transform="translate(870.4375,614.5625)"/>
<path d="M0 0 C12.54 0 25.08 0 38 0 C38.495 0.99 38.495 0.99 39 2 C40.45846131 2.59517007 41.94334271 3.12617058 43.4375 3.625 C51.91203948 6.88630346 60.03044987 13.29811419 65 21 C65.65234375 23.203125 65.65234375 23.203125 66 25 C66.66 25 67.32 25 68 25 C68 25.99 68 26.98 68 28 C68.66 28 69.32 28 70 28 C70 29.98 70 31.96 70 34 C68.4221875 34.7425 68.4221875 34.7425 66.8125 35.5 C61.61402488 38.03900567 56.91102162 41.32247187 52.1484375 44.5859375 C49 46 49 46 45.78515625 45.4609375 C42.90335565 43.94930577 41.78500404 42.95155648 40.0625 40.25 C36.12014617 34.57383611 31.70702265 30.11147009 25 28 C17.45919785 27.197787 9.74734162 26.61770695 3.51953125 31.54296875 C-1.23637394 36.1032583 -2.28979529 39.32309464 -2.5625 45.875 C-2.33617633 52.20540614 -1.62029515 56.52124562 3 61 C9.78053855 66.48788822 17.48511663 69.59827024 25.546875 72.65625 C28.27823122 73.7191307 30.84234259 74.83883552 33.4375 76.1875 C35.98959765 77.48593564 38.20771534 78.46125694 40.875 79.375 C49.28698608 82.43689708 57.48226326 87.89158973 64 94 C64 94.66 64 95.32 64 96 C64.66 96 65.32 96 66 96 C67.5897769 98.09355819 69.02278332 100.16721921 70.4375 102.375 C70.83259766 102.95894531 71.22769531 103.54289063 71.63476562 104.14453125 C77.43105887 113.11383694 78.48967649 121.98798886 78.375 132.5 C78.38660156 133.56347656 78.39820313 134.62695312 78.41015625 135.72265625 C78.3551194 150.67433439 72.68328022 162.90683364 62.40625 173.71484375 C55.55224547 180.22392273 48.48064139 183.92164096 39.58984375 187.0546875 C37.10349875 187.75590518 37.10349875 187.75590518 36 189 C33.3337397 189.08855161 30.69352886 189.11524673 28.02734375 189.09765625 C27.22970108 189.0962413 26.43205841 189.09482635 25.61024475 189.09336853 C23.05262565 189.08775316 20.49509282 189.07519812 17.9375 189.0625 C16.20768355 189.05748698 14.47786574 189.05292373 12.74804688 189.04882812 C8.49866447 189.03777875 4.24934688 189.02050386 0 189 C0 188.34 0 187.68 0 187 C-1.7325 186.62875 -1.7325 186.62875 -3.5 186.25 C-17.38504591 182.63309119 -27.7905713 172.09880189 -35 160 C-35.5053125 159.17628906 -36.010625 158.35257813 -36.53125 157.50390625 C-39.87268177 151.55430135 -40.64858608 146.77412129 -40 140 C-39.09121094 139.65388672 -39.09121094 139.65388672 -38.1640625 139.30078125 C-33.53814373 137.50023133 -29.16467369 135.58086126 -24.8125 133.1875 C-21.45155161 131.48060325 -19.95068491 130.99843444 -16.0625 130.875 C-12.25456562 132.27383304 -11.81359928 133.45820639 -10 137 C-9.42461374 138.71824061 -8.88364815 140.44833434 -8.375 142.1875 C-5.83692946 149.34640888 -1.3930728 154.91550208 4.8359375 159.2890625 C11.89643247 162.58807107 21.60463781 162.07147754 28.98046875 160.2734375 C35.39809876 157.88503057 40.6101672 154.60640657 44.375 148.75 C46.34953542 144.42915471 46.39030552 140.11075723 46.4375 135.4375 C46.44765137 134.71723633 46.45780273 133.99697266 46.46826172 133.25488281 C46.34641766 125.75546654 43.77652304 120.14935924 38.69921875 114.6171875 C30.77275703 107.07338255 19.10689574 103.31044965 9.015625 99.46484375 C-6.05624583 93.72045596 -20.40985409 85.1469762 -29 71 C-29.48597656 70.23300781 -29.97195312 69.46601563 -30.47265625 68.67578125 C-36.13891184 57.86412364 -36.13161617 42.73494544 -32.9375 31.14453125 C-31.78031904 28.59253396 -30.54014067 26.33354648 -29 24 C-28.31874244 22.67406246 -27.64723971 21.34287117 -27 20 C-26.34 20 -25.68 20 -25 20 C-24.75378906 19.42121094 -24.50757813 18.84242188 -24.25390625 18.24609375 C-20.33590727 11.22787129 -12.19089518 6.20359192 -5 3 C-4.27425781 2.83371094 -3.54851562 2.66742188 -2.80078125 2.49609375 C-2.20652344 2.33238281 -1.61226563 2.16867187 -1 2 C-0.67 1.34 -0.34 0.68 0 0 Z " fill="#000000" transform="translate(272,411)"/>
<path d="M0 0 C3.3376146 3.36389503 4.90727452 8.02123386 6.75 12.3125 C7.45457384 13.92628615 8.16032394 15.53955921 8.8671875 17.15234375 C9.39844238 18.36639893 9.39844238 18.36639893 9.94042969 19.60498047 C11.53842684 23.21704315 13.19904022 26.79857353 14.875 30.375 C15.42929687 31.55835938 15.98359375 32.74171875 16.5546875 33.9609375 C17.39000958 35.71737149 18.25493982 37.46155771 19.1953125 39.1640625 C20 41 20 41 20 45 C20.66 45 21.32 45 22 45 C22.40992188 46.04800781 22.81984375 47.09601563 23.2421875 48.17578125 C23.78627439 49.55476009 24.33055538 50.93366236 24.875 52.3125 C25.14441406 53.00279297 25.41382813 53.69308594 25.69140625 54.40429688 C26.92173667 57.51013099 28.13988463 60.20982695 30 63 C30 64.32 30 65.64 30 67 C30.66 67 31.32 67 32 67 C32.35191406 67.90878906 32.70382812 68.81757813 33.06640625 69.75390625 C35.9026365 77.00237511 38.90475004 84.1129217 42.24560547 91.14501953 C44.9926755 96.93569263 47.59063611 102.78781183 50.15966797 108.65942383 C52.02512499 112.89835469 53.9995297 117.05747618 56.09155273 121.18920898 C57.26919241 123.53657622 58.360953 125.91727606 59.4375 128.3125 C60.06785156 129.70855469 60.06785156 129.70855469 60.7109375 131.1328125 C61.5703125 133.04427083 62.4296875 134.95572917 63.2890625 136.8671875 C65.14275213 140.97259827 67.0028587 145.05585404 69.0625 149.0625 C71.79405508 154.43713874 73.93990819 160.07431354 75.9921875 165.73828125 C76.78257131 168.15585444 76.78257131 168.15585444 79 169 C79.08121924 170.60332791 79.13929134 172.20784026 79.1875 173.8125 C79.22230469 174.70582031 79.25710938 175.59914063 79.29296875 176.51953125 C79 179 79 179 77.79418945 180.62573242 C74.20915757 183.37170391 69.33987112 182.5110711 65 182.5 C63.989375 182.52835938 62.97875 182.55671875 61.9375 182.5859375 C59.20165257 182.59321369 56.68629559 182.519298 54 182 C52.01171875 179.88671875 52.01171875 179.88671875 51 177 C50.23623047 175.44732422 50.23623047 175.44732422 49.45703125 173.86328125 C48.64298828 172.10564453 48.64298828 172.10564453 47.8125 170.3125 C47.51496826 169.67111084 47.21743652 169.02972168 46.91088867 168.36889648 C44.15134156 162.39142712 41.48084291 156.37423797 38.84106445 150.34301758 C36.95448433 146.05453922 34.94938231 141.87512953 32.7409668 137.74194336 C32 136 32 136 32 133 C31.34 133 30.68 133 30 133 C29.81566406 132.49855469 29.63132812 131.99710938 29.44140625 131.48046875 C26.77216133 124.51670535 23.58239856 117.83797819 20.36083984 111.11865234 C17.7462579 105.64197326 15.32811147 100.11926066 13.04296875 94.49609375 C11.16755096 90.00773431 8.91334751 85.72696166 6.640625 81.4296875 C6.18171875 80.54539062 5.7228125 79.66109375 5.25 78.75 C4.82203125 77.94046875 4.3940625 77.1309375 3.953125 76.296875 C3 74 3 74 3 70 C2.34 70 1.68 70 1 70 C-0.32 66.7 -1.64 63.4 -3 60 C-5.80408284 62.80408284 -6.53242422 63.85625287 -7.8125 67.375 C-9.86653879 72.78078425 -12.2679642 77.9843594 -14.73046875 83.21484375 C-16.05727897 85.99561171 -16.05727897 85.99561171 -17 89 C-17.66 89 -18.32 89 -19 89 C-19.10054687 89.66386719 -19.20109375 90.32773437 -19.3046875 91.01171875 C-20.18318547 94.78728586 -21.62224956 98.25335421 -23.125 101.8125 C-23.43703369 102.55878662 -23.74906738 103.30507324 -24.07055664 104.07397461 C-25.04075829 106.38535885 -26.01929999 108.69305298 -27 111 C-27.29213379 111.69158203 -27.58426758 112.38316406 -27.88525391 113.09570312 C-31.36406977 121.30785917 -35.11047573 129.32664906 -39.15551758 137.27490234 C-41.60668605 142.12222404 -43.75746991 147.04043556 -45.79296875 152.078125 C-47.5511089 156.3340759 -49.49800878 160.49589576 -51.4453125 164.66796875 C-52.53337792 166.99992805 -53.61234376 169.3344116 -54.6796875 171.67578125 C-55.21851563 172.85527344 -55.75734375 174.03476562 -56.3125 175.25 C-56.80363281 176.32765625 -57.29476562 177.4053125 -57.80078125 178.515625 C-59 181 -59 181 -60 182 C-63.76181533 182.33568667 -67.53763394 182.32500177 -71.3125 182.375 C-72.90094727 182.43107422 -72.90094727 182.43107422 -74.52148438 182.48828125 C-82.27185053 182.57640923 -82.27185053 182.57640923 -85.79296875 179.7890625 C-87.67197179 175.44728848 -86.48060698 173.24828793 -84.8359375 168.9765625 C-84.35382812 167.87054687 -83.87171875 166.76453125 -83.375 165.625 C-82.97740479 164.71089355 -82.97740479 164.71089355 -82.57177734 163.77832031 C-80.38110724 158.77873851 -78.07963187 153.83170963 -75.74975586 148.89575195 C-73.39901049 143.90226309 -71.15903053 138.86460514 -68.9375 133.8125 C-66.23062318 127.6613334 -63.35220451 121.63980399 -60.296875 115.65234375 C-58.69398666 112.37414741 -57.37247881 109.02692646 -56.05859375 105.625 C-53.92042542 100.32297375 -51.41867691 95.17836832 -49 90 C-46.3380613 84.21392103 -43.73315918 78.40357381 -41.15600586 72.5793457 C-38.08031088 65.63044544 -34.95383348 58.71396324 -31.72192383 51.83618164 C-29.2079832 46.47315574 -26.75102882 41.08520433 -24.3125 35.6875 C-23.94390869 34.87555176 -23.57531738 34.06360352 -23.19555664 33.22705078 C-20.63647309 27.5454581 -18.27245544 21.80193229 -16 16 C-15.34 16 -14.68 16 -14 16 C-13.87496094 15.28328125 -13.74992188 14.5665625 -13.62109375 13.828125 C-12.9976724 10.98940137 -12.13334973 8.44934951 -11.0625 5.75 C-10.72347656 4.87859375 -10.38445312 4.0071875 -10.03515625 3.109375 C-7.95878387 -1.12172343 -4.2512561 -0.3729172 0 0 Z " fill="#000000" transform="translate(916,415)"/>
<path d="M0 0 C8.0607929 14.67377349 8.0607929 14.67377349 11.00390625 22.53515625 C12.19783982 25.48955657 13.61355162 28.28732847 15.0625 31.125 C21 42.80458861 21 42.80458861 21 48 C21.66 48 22.32 48 23 48 C23.20753906 48.53625 23.41507813 49.0725 23.62890625 49.625 C28.8814497 62.9871189 34.87710548 76.01932626 41 89 C45.13341388 97.76969902 49.16525367 106.57548413 53.08740234 115.44189453 C56.83482112 123.90586076 60.73608661 132.29607506 64.65454102 140.68188477 C64.95416748 141.32311279 65.25379395 141.96434082 65.5625 142.625 C65.85890381 143.25913818 66.15530762 143.89327637 66.46069336 144.54663086 C68.60557577 149.14076528 70.72560793 153.74504292 72.80078125 158.37109375 C73.64829588 160.22900041 74.52349722 162.07439513 75.41796875 163.91015625 C75.87816406 164.86792969 76.33835937 165.82570313 76.8125 166.8125 C77.23144531 167.66457031 77.65039062 168.51664063 78.08203125 169.39453125 C79.185333 172.52603025 79.43577839 174.70305033 79 178 C77.703125 180.359375 77.703125 180.359375 75 182 C71.23698989 182.48227966 67.53559843 182.37490553 63.75 182.25 C62.203125 182.22292969 62.203125 182.22292969 60.625 182.1953125 C58.08238936 182.14822712 55.54166838 182.0824805 53 182 C49.46801106 175.17683954 46.20381234 168.28642398 43.125 161.25 C40.51411668 155.28585566 37.76859175 149.42580468 34.8125 143.625 C32.01986175 138.14079933 29.50891486 132.62082915 27.203125 126.91015625 C25.92358162 123.81515684 24.54021382 120.78526123 23.125 117.75 C20.89396971 112.96352939 18.73288656 108.15393136 16.625 103.3125 C16.18909546 102.31331543 16.18909546 102.31331543 15.74438477 101.29394531 C14.50811193 98.45990849 13.27226184 95.62569062 12.03857422 92.79052734 C7.34325184 82.02193296 2.35620999 71.45600566 -3 61 C-3.66 61 -4.32 61 -5 61 C-5.25168945 61.56396484 -5.50337891 62.12792969 -5.76269531 62.70898438 C-6.92331121 65.30680657 -8.08663848 67.90340626 -9.25 70.5 C-9.64574219 71.386875 -10.04148437 72.27375 -10.44921875 73.1875 C-12.54860082 77.86808953 -14.72419241 82.485671 -17.04394531 87.06054688 C-18.73285604 90.48667221 -20.22789506 93.99745536 -21.75 97.5 C-24.72274876 104.27955784 -27.91012359 110.9097262 -31.27148438 117.50390625 C-33.48580542 121.8795107 -35.40441218 126.28536524 -37.15234375 130.86328125 C-38.21500365 133.54196774 -39.49403646 136.06680831 -40.80859375 138.62890625 C-44.86201003 146.69586914 -48.57662888 154.92416609 -52.0625 163.25 C-58.52847633 178.52847633 -58.52847633 178.52847633 -62 182 C-65.42784729 182.33427964 -68.87044808 182.32495034 -72.3125 182.375 C-73.75786133 182.43107422 -73.75786133 182.43107422 -75.23242188 182.48828125 C-82.26790307 182.57604193 -82.26790307 182.57604193 -85.73046875 179.8515625 C-87.32598711 176.2677828 -87.12014907 174.73541238 -86 171 C-85.1515861 168.90849865 -84.22997008 166.84568535 -83.25 164.8125 C-82.70988281 163.67683594 -82.16976563 162.54117188 -81.61328125 161.37109375 C-81.08089844 160.25863281 -80.54851562 159.14617187 -80 158 C-79.14057241 156.12740557 -78.28603623 154.25255478 -77.4375 152.375 C-77.03402344 151.48554687 -76.63054687 150.59609375 -76.21484375 149.6796875 C-75.81394531 148.79539062 -75.41304688 147.91109375 -75 147 C-74.16686344 145.16657723 -73.33352897 143.3332444 -72.5 141.5 C-71.87738281 140.12908203 -71.87738281 140.12908203 -71.2421875 138.73046875 C-70.43726571 136.96115953 -69.63011314 135.19286278 -68.8203125 133.42578125 C-66.24917989 127.80457957 -63.73457736 122.15987994 -61.25 116.5 C-60.94400879 115.80495361 -60.63801758 115.10990723 -60.32275391 114.39379883 C-59.10793844 111.61732136 -57.95896029 108.87688087 -57 106 C-56.34 106 -55.68 106 -55 106 C-54.90074219 105.34128906 -54.80148437 104.68257812 -54.69921875 104.00390625 C-53.79675251 100.12683061 -52.3463686 96.60317211 -50.8125 92.9375 C-50.49788818 92.17945068 -50.18327637 91.42140137 -49.85913086 90.64038086 C-47.64924104 85.38221347 -45.20982756 80.28984523 -42.59765625 75.21875 C-40.23245285 70.45364585 -38.11160261 65.58647944 -35.96777344 60.71875 C-33.05622681 54.10845046 -30.04073994 47.55196687 -27 41 C-24.21854186 34.97493375 -21.53050466 28.92133304 -18.9375 22.8125 C-16.7902678 17.7692572 -14.48439816 12.88312741 -12 8 C-11.45026331 6.6908596 -10.90827139 5.37843338 -10.375 4.0625 C-8.05816553 -1.09772223 -5.25234226 -0.0972656 0 0 Z " fill="#000000" transform="translate(505,415)"/>
<path d="M0 0 C5.66302656 1.78432499 8.07390091 5.58647363 10.85351562 10.62255859 C12.32116882 13.48704444 13.6849778 16.36330625 14.97265625 19.31298828 C16.59211123 22.95609936 18.56717896 26.32680425 20.60351562 29.74755859 C21.21066406 30.83166016 21.8178125 31.91576172 22.44335938 33.03271484 C24.49599673 36.56548526 26.75066113 39.91183945 29.13476562 43.22802734 C30.16601562 44.99755859 30.16601562 44.99755859 30.16601562 47.99755859 C30.82601562 47.99755859 31.48601563 47.99755859 32.16601562 47.99755859 C32.52953125 48.67560547 32.89304687 49.35365234 33.26757812 50.05224609 C36.37704613 55.80874841 39.60057272 61.45037445 43.06445312 67.00146484 C44.16601562 68.99755859 44.16601562 68.99755859 44.16601562 70.99755859 C48.00578202 67.60952942 50.14588504 63.81341125 52.54101562 59.37255859 C53.34346782 57.91761642 54.14685026 56.4631869 54.95117188 55.00927734 C55.33547363 54.31108887 55.71977539 53.61290039 56.11572266 52.89355469 C59.20313603 47.32013483 62.5701638 41.92584672 65.99023438 36.55224609 C71.32832245 28.16417843 76.56583067 19.82062627 81.16601562 10.99755859 C82.07558173 9.28543416 82.99194416 7.5768979 83.91601562 5.87255859 C84.30273438 5.14810547 84.68945312 4.42365234 85.08789062 3.67724609 C86.16601562 1.99755859 86.16601562 1.99755859 88.16601562 0.99755859 C92.45175268 0.70010891 96.74617267 0.71950921 101.04101562 0.68505859 C102.23855469 0.65605469 103.43609375 0.62705078 104.66992188 0.59716797 C105.82105469 0.58878906 106.9721875 0.58041016 108.15820312 0.57177734 C109.74157471 0.54990356 109.74157471 0.54990356 111.35693359 0.52758789 C114.87157323 1.11560121 116.04353465 2.18095872 118.16601562 4.99755859 C118.41601562 8.24755859 118.41601562 8.24755859 118.16601562 10.99755859 C117.50601563 10.99755859 116.84601563 10.99755859 116.16601562 10.99755859 C115.89128418 11.73184082 115.61655273 12.46612305 115.33349609 13.22265625 C114.23870748 15.82478243 113.01100058 18.02714875 111.48632812 20.39599609 C110.71095703 21.61029297 110.71095703 21.61029297 109.91992188 22.84912109 C109.11361328 24.09822266 109.11361328 24.09822266 108.29101562 25.37255859 C104.77602476 30.84602369 101.33552765 36.31596607 98.16601562 41.99755859 C97.67617188 42.87283203 97.18632813 43.74810547 96.68164062 44.64990234 C96.26398438 45.40400391 95.84632813 46.15810547 95.41601562 46.93505859 C94.98804688 47.70720703 94.56007813 48.47935547 94.11914062 49.27490234 C93.64734375 50.12761719 93.64734375 50.12761719 93.16601562 50.99755859 C92.50601563 50.99755859 91.84601563 50.99755859 91.16601562 50.99755859 C90.93785156 51.64724609 90.7096875 52.29693359 90.47460938 52.96630859 C88.7246341 57.01998266 86.493239 60.71321564 84.22851562 64.49755859 C83.78572266 65.24392578 83.34292969 65.99029297 82.88671875 66.75927734 C82.03182626 68.19896217 81.1734241 69.63657043 80.31103516 71.07177734 C79.33811375 72.70811083 78.40222986 74.36637557 77.47460938 76.02880859 C77.04277344 76.67849609 76.6109375 77.32818359 76.16601562 77.99755859 C75.50601563 77.99755859 74.84601563 77.99755859 74.16601562 77.99755859 C74.05202423 78.59788406 73.93803284 79.19820953 73.82058716 79.81672668 C73.16601562 81.99755859 73.16601562 81.99755859 70.69287109 84.89086914 C58.09781524 99.99863851 60.87094978 119.53218168 61.23858643 138.02703857 C61.3768699 145.36733167 61.4331805 152.70807688 61.4642601 160.04950523 C61.48596327 162.59922625 61.54229167 165.14645402 61.60281372 167.69551086 C61.61990905 169.25427123 61.63598644 170.8130432 61.65087891 172.37182617 C61.67678604 173.07363007 61.70269318 173.77543396 61.72938538 174.49850464 C61.73298636 178.36372747 61.25594281 179.88619426 58.79344177 182.93571472 C55.87195505 185.22831941 54.65848503 185.62107348 51.00585938 185.59130859 C50.04744141 185.58873047 49.08902344 185.58615234 48.1015625 185.58349609 C47.11220703 185.55513672 46.12285156 185.52677734 45.10351562 185.49755859 C44.11029297 185.50013672 43.11707031 185.50271484 42.09375 185.50537109 C35.00394645 185.40988552 35.00394645 185.40988552 32.04354858 183.95314026 C29.71610688 181.52894723 29.70098733 179.81720041 29.68263245 176.53155518 C29.69866013 175.79129089 29.71468781 175.05102661 29.73120117 174.28833008 C29.73210754 173.50416214 29.73301392 172.7199942 29.73394775 171.9120636 C29.73801434 170.20798552 29.75101863 168.50391089 29.77185631 166.79995537 C29.80299963 164.09561904 29.80684957 161.39250258 29.80293274 158.68800354 C29.79641564 150.99883445 29.83655968 143.31021594 29.90161133 135.62133789 C29.93950711 130.91676337 29.94310024 126.21312195 29.92658424 121.50844002 C29.92734459 119.72198041 29.94127717 117.93547275 29.9690609 116.14922905 C30.13517901 105.35064641 29.8175477 98.31466155 22.16601562 89.99755859 C21.37018133 88.81504134 20.60198778 87.61306908 19.87304688 86.38818359 C16.04080766 80.00097586 16.04080766 80.00097586 11.92773438 73.79443359 C10.16601562 70.99755859 10.16601562 70.99755859 10.16601562 67.99755859 C9.50601563 67.99755859 8.84601562 67.99755859 8.16601562 67.99755859 C6.12432078 65.09206977 5.16601562 63.59613814 5.16601562 59.99755859 C4.50601563 59.99755859 3.84601562 59.99755859 3.16601562 59.99755859 C1.93603516 58.27954102 1.93603516 58.27954102 0.54882812 55.85302734 C0.03006104 54.95737061 -0.48870605 54.06171387 -1.02319336 53.13891602 C-1.57950439 52.16414307 -2.13581543 51.18937012 -2.70898438 50.18505859 C-7.10820317 42.60400326 -11.57528396 35.08633644 -16.27148438 27.68505859 C-16.74247559 26.9408667 -17.2134668 26.1966748 -17.69873047 25.42993164 C-18.1545752 24.71361572 -18.61041992 23.9972998 -19.08007812 23.25927734 C-19.52335449 22.56237793 -19.96663086 21.86547852 -20.42333984 21.14746094 C-21.42384932 19.6226277 -22.45783589 18.11952521 -23.51416016 16.6328125 C-24.06442871 15.85212402 -24.61469727 15.07143555 -25.18164062 14.26708984 C-25.94166382 13.21871948 -25.94166382 13.21871948 -26.71704102 12.14916992 C-28.10845959 9.46882634 -28.33309131 7.97842566 -27.83398438 4.99755859 C-22.16217253 -2.77969214 -8.54439694 -1.16653901 0 0 Z " fill="#000000" transform="translate(661.833984375,412.00244140625)"/>
<path d="M0 0 C1.01126953 0.00386719 2.02253906 0.00773438 3.06445312 0.01171875 C4.11439453 0.03621094 5.16433594 0.06070313 6.24609375 0.0859375 C7.82680664 0.08787109 7.82680664 0.08787109 9.43945312 0.08984375 C17.26173397 0.17969765 17.26173397 0.17969765 20.68359375 2.4609375 C20.96991358 5.18273794 21.06190409 7.67614651 21.02416992 10.39892578 C21.02482704 11.62831375 21.02482704 11.62831375 21.02549744 12.88253784 C21.02340281 15.59901528 21.0000404 18.31488003 20.9765625 21.03125 C20.97096893 22.91168887 20.96669771 24.7921321 20.96369934 26.6725769 C20.9522317 31.6276654 20.9227481 36.5824911 20.8895874 41.53747559 C20.85892779 46.5913538 20.84520281 51.64527439 20.83007812 56.69921875 C20.79788012 66.61992585 20.74509661 76.54036873 20.68359375 86.4609375 C10.78359375 86.4609375 0.88359375 86.4609375 -9.31640625 86.4609375 C-9.40674439 75.83856212 -9.4801435 65.21644152 -9.52365494 54.59376907 C-9.54453735 49.66132597 -9.57286695 44.72915911 -9.61816406 39.796875 C-9.66159846 35.03767936 -9.68553843 30.27874957 -9.69591522 25.51937103 C-9.70331092 23.70284591 -9.71775294 21.88633547 -9.73932648 20.0699234 C-9.76832891 17.52708906 -9.77236365 14.98535571 -9.77050781 12.44238281 C-9.78488892 11.69000336 -9.79927002 10.9376239 -9.81408691 10.16244507 C-9.7865635 6.6813384 -9.57631698 4.80384356 -7.44538879 1.99246216 C-4.78003581 0.07508907 -3.2631815 -0.02903642 0 0 Z " fill="#000000" transform="translate(977.31640625,614.5390625)"/>
<path d="M0 0 C1.57491211 -0.0299707 1.57491211 -0.0299707 3.18164062 -0.06054688 C4.69854492 -0.05958008 4.69854492 -0.05958008 6.24609375 -0.05859375 C7.63139282 -0.06137329 7.63139282 -0.06137329 9.04467773 -0.06420898 C12.46399691 0.61713504 13.45753026 1.66148199 15.5625 4.4375 C15.9366618 7.23315002 16.06994226 9.62830813 16.01660156 12.41894531 C16.01718567 13.2193222 16.01776978 14.0196991 16.01837158 14.84432983 C16.01558875 17.48520545 15.98448834 20.12494701 15.953125 22.765625 C15.9456633 24.59836205 15.93997003 26.43110709 15.93597412 28.26385498 C15.92071221 33.08420902 15.88142562 37.90407985 15.8371582 42.72424316 C15.79621751 47.64422061 15.77796567 52.56427625 15.7578125 57.484375 C15.71493174 67.13566297 15.64457736 76.78646568 15.5625 86.4375 C5.6625 86.4375 -4.2375 86.4375 -14.4375 86.4375 C-14.5052186 75.66746387 -14.560283 64.89756864 -14.59293652 54.12736797 C-14.60860684 49.12657971 -14.62987004 44.12594438 -14.66381836 39.12524414 C-14.69636309 34.30122686 -14.71434271 29.47735687 -14.72213173 24.6532383 C-14.72768404 22.81078586 -14.73852608 20.96834167 -14.75469017 19.12595177 C-14.77639965 16.54952816 -14.77946967 13.97371683 -14.77807617 11.3972168 C-14.788862 10.63189133 -14.79964783 9.86656586 -14.8107605 9.07804871 C-14.78054268 3.93061527 -14.78054268 3.93061527 -13.06549072 1.465271 C-9.33500843 -0.88982934 -4.26180494 -0.02867269 0 0 Z " fill="#000000" transform="translate(870.4375,614.5625)"/>
<path d="M0 0 C9.9 0 19.8 0 30 0 C30.16043524 17.09972238 30.16043524 17.09972238 30.1953125 24.38085938 C30.21923727 29.35198003 30.24755917 34.3228064 30.30175781 39.29370117 C30.34517495 43.3007702 30.36912831 47.30752373 30.37950897 51.3148098 C30.38690787 52.84468746 30.40135619 54.37454758 30.42292023 55.90429115 C30.45190113 58.04505539 30.45595851 60.18451106 30.45410156 62.32543945 C30.46298401 63.54455521 30.47186646 64.76367096 30.48101807 66.01972961 C30 69 30 69 28.11750793 70.89389038 C25.60345864 72.20713888 23.94942588 72.37332138 21.12109375 72.36328125 C20.20005859 72.36263672 19.27902344 72.36199219 18.33007812 72.36132812 C17.37552734 72.34521484 16.42097656 72.32910156 15.4375 72.3125 C14.47908203 72.31572266 13.52066406 72.31894531 12.53320312 72.32226562 C5.40092997 72.26728664 5.40092997 72.26728664 2 70 C2 69.34 2 68.68 2 68 C1.34 68 0.68 68 0 68 C0 45.56 0 23.12 0 0 Z " fill="#000000" transform="translate(968,727)"/>
<path d="M0 0 C9.9 0 19.8 0 30 0 C30.20054405 16.81004765 30.20054405 16.81004765 30.24414062 23.9765625 C30.2740288 28.86648692 30.30938168 33.75594315 30.37719727 38.64550781 C30.43153189 42.58776222 30.46142322 46.52951462 30.47438622 50.47211456 C30.4836237 51.97607579 30.50166295 53.48000957 30.52865028 54.98375702 C30.56496389 57.09101168 30.56994498 59.19619364 30.56762695 61.30371094 C30.57873001 62.50284119 30.58983307 63.70197144 30.60127258 64.93743896 C30 68 30 68 27.61651611 70.38616943 C24.79736744 72.12498093 23.33181128 72.51341751 20.05859375 72.53125 C18.68864258 72.53898438 18.68864258 72.53898438 17.29101562 72.546875 C16.34935547 72.53140625 15.40769531 72.5159375 14.4375 72.5 C13.01920898 72.52320313 13.01920898 72.52320313 11.57226562 72.546875 C10.66025391 72.54171875 9.74824219 72.5365625 8.80859375 72.53125 C7.98157959 72.52673828 7.15456543 72.52222656 6.30249023 72.51757812 C3.10041818 71.79778248 2.02591419 70.56526232 0 68 C-0.48101807 64.93743896 -0.48101807 64.93743896 -0.45410156 61.30371094 C-0.45468567 60.63988403 -0.45526978 59.97605713 -0.45587158 59.29211426 C-0.45309265 57.10566262 -0.42201328 54.92058738 -0.390625 52.734375 C-0.38316184 51.21552271 -0.37746926 49.69666078 -0.37347412 48.17779541 C-0.35822341 44.18596675 -0.31894723 40.19472303 -0.2746582 36.203125 C-0.22648672 31.41077767 -0.20816872 26.61823441 -0.18484497 21.82571411 C-0.14609498 14.55006962 -0.06943942 7.27570782 0 0 Z " fill="#000000" transform="translate(856,727)"/>
<path d="M0 0 C0.78826172 0.02255859 1.57652344 0.04511719 2.38867188 0.06835938 C4.32243929 0.12695839 6.25522167 0.21663173 8.1875 0.3125 C8.1875 1.3025 8.1875 2.2925 8.1875 3.3125 C7.1975 3.6425 6.2075 3.9725 5.1875 4.3125 C5.24550781 4.91578125 5.30351563 5.5190625 5.36328125 6.140625 C5.72655665 12.57578924 5.72655665 12.57578924 3.3125 15.875 C-1.09054563 17.90040099 -5.04387456 17.64584081 -9.8125 17.3125 C-9.4825 18.3025 -9.1525 19.2925 -8.8125 20.3125 C-8.00425781 20.33828125 -7.19601562 20.3640625 -6.36328125 20.390625 C2.29732832 20.85029547 2.29732832 20.85029547 6.4375 23 C8.1875 25.3125 8.1875 25.3125 8.75 28.3125 C8.07451736 31.9150741 7.02076787 33.06255199 4.1875 35.3125 C-0.24647566 37.52948783 -5.99821109 36.84213129 -10.8125 36.3125 C-13.68080841 34.96501009 -14.16922175 34.15663543 -15.8125 31.3125 C-15.6875 28.75 -15.6875 28.75 -14.8125 26.3125 C-14.01724352 23.76767925 -13.76868736 22.52608664 -14.3125 19.875 C-14.87966977 16.96825495 -14.42915523 15.1902244 -13.8125 12.3125 C-13.895 11.1575 -13.9775 10.0025 -14.0625 8.8125 C-13.8125 5.3125 -13.8125 5.3125 -11.84765625 2.61328125 C-7.76706819 -0.47998306 -4.95997019 -0.27024146 0 0 Z M-8 4.5 C-10.02917976 6.1940484 -10.02917976 6.1940484 -10.3125 8.8125 C-10.01430308 11.40892209 -10.01430308 11.40892209 -8.125 13.1875 C-5.19327646 14.61374388 -3.85923446 14.35480389 -0.8125 13.3125 C1.40646136 11.48778109 1.40646136 11.48778109 1.5625 8.875 C1.4308504 6.19500211 1.4308504 6.19500211 -0.625 4.5 C-3.56581549 2.9035573 -5.05918451 2.9035573 -8 4.5 Z M-9.8125 25.5 C-11.07018528 27.36462698 -11.07018528 27.36462698 -10.5 30 C-10.273125 30.763125 -10.04625 31.52625 -9.8125 32.3125 C-8.39816794 32.5361337 -6.98082382 32.74076476 -5.5625 32.9375 C-4.77359375 33.05351563 -3.9846875 33.16953125 -3.171875 33.2890625 C-0.4520935 33.3160802 0.93148607 32.80308063 3.1875 31.3125 C3.99278889 29.26249129 3.99278889 29.26249129 4.1875 27.3125 C-0.17389103 24.14057925 -4.86122836 22.56018246 -9.8125 25.5 Z " fill="#000000" transform="translate(957.8125,828.6875)"/>
<path d="M0 0 C18.48717949 0 18.48717949 0 23 4 C27.38687707 9.28674928 27.62027837 14.06194566 27.37890625 20.8359375 C26.64939941 26.92769566 24.7608329 30.39924282 20.25 34.5 C16 36 16 36 0 36 C0 24.12 0 12.24 0 0 Z M4 3 C4 12.9 4 22.8 4 33 C12.1284967 33.08691285 12.1284967 33.08691285 19 30 C22.75900783 25.86509139 23.14365323 20.40812159 23 15 C21.95492957 10.43969267 19.67939928 6.89892065 16 4 C12.1002699 2.3286871 8.36692677 3 4 3 Z " fill="#000000" transform="translate(839,819)"/>
<path d="M0 0 C1.98 0 3.96 0 6 0 C7.71743884 4.48087102 9.42616803 8.9649297 11.12695312 13.45214844 C11.70660738 14.97779326 12.28862049 16.50254404 12.87304688 18.02636719 C13.71327319 20.21838618 14.54492995 22.41349322 15.375 24.609375 C15.63748535 25.2886908 15.8999707 25.96800659 16.17041016 26.66790771 C17.43567006 30.04034301 18 32.33896018 18 36 C16.35 35.67 14.7 35.34 13 35 C12.34 32.03 11.68 29.06 11 26 C5.72 26 0.44 26 -5 26 C-5.66 28.97 -6.32 31.94 -7 35 C-9.475 35.495 -9.475 35.495 -12 36 C-10.49163573 27.9640593 -7.7718177 20.56903235 -4.875 12.9375 C-4.40179368 11.67794089 -3.92913331 10.41817654 -3.45703125 9.15820312 C-2.31002222 6.10341376 -1.15756363 3.050802 0 0 Z M2 6 C1.16301614 8.45714547 0.33027576 10.91558857 -0.5 13.375 C-0.73847656 14.07367187 -0.97695313 14.77234375 -1.22265625 15.4921875 C-2.53735912 19.16403079 -2.53735912 19.16403079 -3 23 C0.96 23 4.92 23 9 23 C7.31108451 17.12900806 5.53630629 11.55571853 3 6 C2.67 6 2.34 6 2 6 Z " fill="#000000" transform="translate(413,819)"/>
<path d="M0 0 C1.32 0 2.64 0 4 0 C4 12.87 4 25.74 4 39 C2.68 39 1.36 39 0 39 C0 38.34 0 37.68 0 37 C-0.495 37.33 -0.99 37.66 -1.5 38 C-5.00274552 39.40109821 -8.31190002 39.61468333 -12 39 C-14.8100346 37.20636089 -16.50940468 35.98119065 -18 33 C-19.03888907 20.66957896 -19.03888907 20.66957896 -16.125 16.25 C-13.92624095 13.92190218 -13.06767462 13.06772563 -9.90625 12.8671875 C-9.1121875 12.86976563 -8.318125 12.87234375 -7.5 12.875 C-6.30890625 12.87113281 -6.30890625 12.87113281 -5.09375 12.8671875 C-3 13 -3 13 -1 14 C-0.67 9.38 -0.34 4.76 0 0 Z M-11.6875 17.875 C-14.51336461 21.69373596 -14.73157714 23.96285401 -14.48828125 28.61328125 C-14.10060482 31.29647124 -14.10060482 31.29647124 -11.8125 34.1875 C-9.19866274 36.23135161 -9.19866274 36.23135161 -6.4375 36 C-3.78229119 34.91068357 -2.07682247 33.99082568 0 32 C0.87942405 27.93980194 0.75925981 24.07750638 0 20 C-3.92987423 16.15745631 -6.92573531 14.55283859 -11.6875 17.875 Z " fill="#000000" transform="translate(808,816)"/>
<path d="M0 0 C1.32 0 2.64 0 4 0 C4 12.87 4 25.74 4 39 C2.68 39 1.36 39 0 39 C0 38.34 0 37.68 0 37 C-0.495 37.33 -0.99 37.66 -1.5 38 C-5.00274552 39.40109821 -8.31190002 39.61468333 -12 39 C-14.8100346 37.20636089 -16.50940468 35.98119065 -18 33 C-19.03888907 20.66957896 -19.03888907 20.66957896 -16.125 16.25 C-13.92624095 13.92190218 -13.06767462 13.06772563 -9.90625 12.8671875 C-9.1121875 12.86976563 -8.318125 12.87234375 -7.5 12.875 C-6.30890625 12.87113281 -6.30890625 12.87113281 -5.09375 12.8671875 C-3 13 -3 13 -1 14 C-0.67 9.38 -0.34 4.76 0 0 Z M-11.6875 17.875 C-14.51336461 21.69373596 -14.73157714 23.96285401 -14.48828125 28.61328125 C-14.10060482 31.29647124 -14.10060482 31.29647124 -11.8125 34.1875 C-9.19866274 36.23135161 -9.19866274 36.23135161 -6.4375 36 C-3.78229119 34.91068357 -2.07682247 33.99082568 0 32 C0.87942405 27.93980194 0.75925981 24.07750638 0 20 C-3.92987423 16.15745631 -6.92573531 14.55283859 -11.6875 17.875 Z " fill="#000000" transform="translate(327,816)"/>
<path d="M0 0 C1.32 0 2.64 0 4 0 C4.33 4.95 4.66 9.9 5 15 C5.99 14.34 6.98 13.68 8 13 C12.28611103 12.32116842 15.85485473 12.22702694 19.5 14.6875 C22.67479636 19.58197773 22.12385762 25.18175822 22.0625 30.8125 C22.05798828 31.60076172 22.05347656 32.38902344 22.04882812 33.20117188 C22.03711312 35.13414761 22.01917998 37.06708393 22 39 C20.35 39 18.7 39 17 39 C16.505 29.1 16.505 29.1 16 19 C13.525 18.01 13.525 18.01 11 17 C8.65829471 18.11763207 6.83675639 19.16324361 5 21 C4.84417697 22.34015221 4.74955858 23.68758903 4.68359375 25.03515625 C4.64169922 25.84404297 4.59980469 26.65292969 4.55664062 27.48632812 C4.51732422 28.33646484 4.47800781 29.18660156 4.4375 30.0625 C4.39431641 30.91650391 4.35113281 31.77050781 4.30664062 32.65039062 C4.20023298 34.76672037 4.09958269 36.88333813 4 39 C2.68 39 1.36 39 0 39 C0 26.13 0 13.26 0 0 Z " fill="#000000" transform="translate(486,816)"/>
<path d="M0 0 C3.9056722 2.63035067 4.80584795 4.16791977 5.875 8.75 C5.91625 9.8225 5.9575 10.895 6 12 C5 13 5 13 3.23413086 13.11352539 C2.48526611 13.10828857 1.73640137 13.10305176 0.96484375 13.09765625 C0.15595703 13.09443359 -0.65292969 13.09121094 -1.48632812 13.08789062 C-2.33646484 13.07951172 -3.18660156 13.07113281 -4.0625 13.0625 C-4.91650391 13.05798828 -5.77050781 13.05347656 -6.65039062 13.04882812 C-8.76695663 13.03700373 -10.88348685 13.01906769 -13 13 C-12.11581835 17.7702328 -12.11581835 17.7702328 -9.265625 21.4609375 C-6.28353201 22.17046997 -3.79294445 21.95575483 -0.75 21.625 C0.86648438 21.45871094 0.86648438 21.45871094 2.515625 21.2890625 C3.74539063 21.14597656 3.74539063 21.14597656 5 21 C4.6875 22.9375 4.6875 22.9375 4 25 C-1.48787539 26.8292918 -7.72494768 26.97502242 -13.0625 24.6875 C-16.92990997 21.31911067 -17.59145116 18.27618981 -18.02734375 13.41796875 C-17.98309586 9.50519063 -17.00546279 6.35030254 -15 3 C-10.92434426 -0.95215102 -5.36807385 -0.92552997 0 0 Z M-12 6 C-12.33 7.32 -12.66 8.64 -13 10 C-8.38 10 -3.76 10 1 10 C0.6214038 5.11330201 0.6214038 5.11330201 -1.875 3.6875 C-6.19432724 2.2900706 -8.47349609 3.40152343 -12 6 Z " fill="#000000" transform="translate(891,829)"/>
<path d="M0 0 C3.9056722 2.63035067 4.80584795 4.16791977 5.875 8.75 C5.91625 9.8225 5.9575 10.895 6 12 C5 13 5 13 3.23413086 13.11352539 C2.48526611 13.10828857 1.73640137 13.10305176 0.96484375 13.09765625 C0.15595703 13.09443359 -0.65292969 13.09121094 -1.48632812 13.08789062 C-2.33646484 13.07951172 -3.18660156 13.07113281 -4.0625 13.0625 C-4.91650391 13.05798828 -5.77050781 13.05347656 -6.65039062 13.04882812 C-8.76695663 13.03700373 -10.88348685 13.01906769 -13 13 C-12.11581835 17.7702328 -12.11581835 17.7702328 -9.265625 21.4609375 C-6.28353201 22.17046997 -3.79294445 21.95575483 -0.75 21.625 C0.86648438 21.45871094 0.86648438 21.45871094 2.515625 21.2890625 C3.74539063 21.14597656 3.74539063 21.14597656 5 21 C4.6875 22.9375 4.6875 22.9375 4 25 C-1.48787539 26.8292918 -7.72494768 26.97502242 -13.0625 24.6875 C-16.92990997 21.31911067 -17.59145116 18.27618981 -18.02734375 13.41796875 C-17.98309586 9.50519063 -17.00546279 6.35030254 -15 3 C-10.92434426 -0.95215102 -5.36807385 -0.92552997 0 0 Z M-12 6 C-12.33 7.32 -12.66 8.64 -13 10 C-8.38 10 -3.76 10 1 10 C0.6214038 5.11330201 0.6214038 5.11330201 -1.875 3.6875 C-6.19432724 2.2900706 -8.47349609 3.40152343 -12 6 Z " fill="#000000" transform="translate(700,829)"/>
<path d="M0 0 C3.9056722 2.63035067 4.80584795 4.16791977 5.875 8.75 C5.91625 9.8225 5.9575 10.895 6 12 C5 13 5 13 3.23413086 13.11352539 C2.48526611 13.10828857 1.73640137 13.10305176 0.96484375 13.09765625 C0.15595703 13.09443359 -0.65292969 13.09121094 -1.48632812 13.08789062 C-2.33646484 13.07951172 -3.18660156 13.07113281 -4.0625 13.0625 C-4.91650391 13.05798828 -5.77050781 13.05347656 -6.65039062 13.04882812 C-8.76695663 13.03700373 -10.88348685 13.01906769 -13 13 C-12.11581835 17.7702328 -12.11581835 17.7702328 -9.265625 21.4609375 C-6.28353201 22.17046997 -3.79294445 21.95575483 -0.75 21.625 C0.86648438 21.45871094 0.86648438 21.45871094 2.515625 21.2890625 C3.74539063 21.14597656 3.74539063 21.14597656 5 21 C4.6875 22.9375 4.6875 22.9375 4 25 C-1.48787539 26.8292918 -7.72494768 26.97502242 -13.0625 24.6875 C-16.92990997 21.31911067 -17.59145116 18.27618981 -18.02734375 13.41796875 C-17.98309586 9.50519063 -17.00546279 6.35030254 -15 3 C-10.92434426 -0.95215102 -5.36807385 -0.92552997 0 0 Z M-12 6 C-12.33 7.32 -12.66 8.64 -13 10 C-8.38 10 -3.76 10 1 10 C0.6214038 5.11330201 0.6214038 5.11330201 -1.875 3.6875 C-6.19432724 2.2900706 -8.47349609 3.40152343 -12 6 Z " fill="#000000" transform="translate(569,829)"/>
<path d="M0 0 C2.30859375 1.34375 2.30859375 1.34375 4 3 C4 3.99 4 4.98 4 6 C3.29875 5.855625 2.5975 5.71125 1.875 5.5625 C0.92625 5.376875 -0.0225 5.19125 -1 5 C-2.03125 4.773125 -3.0625 4.54625 -4.125 4.3125 C-7.19636741 3.66770514 -7.19636741 3.66770514 -10 6 C-10.91890424 8.36612547 -10.91890424 8.36612547 -10 11 C-7.53562054 13.02018267 -4.78698154 14.4711702 -2 16 C3.74468085 19.61702128 3.74468085 19.61702128 6 23 C6.50256748 27.62362084 5.86230692 30.3198911 3 34 C-0.1900794 36.03261696 -2.75431772 36.27058067 -6.5 36.25 C-7.4384375 36.25515625 -8.376875 36.2603125 -9.34375 36.265625 C-12.04047676 35.99595232 -13.68949293 35.3732259 -16 34 C-16 32.68 -16 31.36 -16 30 C-14.9790625 30.2165625 -14.9790625 30.2165625 -13.9375 30.4375 C-12.968125 30.623125 -11.99875 30.80875 -11 31 C-9.824375 31.226875 -8.64875 31.45375 -7.4375 31.6875 C-4.02621145 31.99761714 -2.76852055 31.88259397 0 30 C0.92527992 26.4044107 0.92527992 26.4044107 0 23 C-2.89359978 20.83750762 -5.86775267 19.22174654 -9.08203125 17.578125 C-11.61369506 16.2089253 -13.29909968 15.28721749 -15 13 C-15.62059856 8.19036119 -15.7032347 6.12517552 -13.125 2 C-8.84805004 -0.73724798 -4.96370607 -0.96852801 0 0 Z " fill="#000000" transform="translate(243,819)"/>
<path d="M0 0 C2.9300477 2.56379174 3.85999785 4.69187849 4.37109375 8.5546875 C4.57244136 17.8640534 4.57244136 17.8640534 1.625 21.4375 C-2.66464619 25.21647402 -5.71711574 25.0930739 -11.296875 25.02734375 C-15.01286243 24.64607914 -16.64628287 23.63520165 -19 20.75 C-21.55864228 15.74901737 -21.20261486 11.09276437 -20 5.75 C-16.34897381 -2.42134433 -7.74514192 -3.22714246 0 0 Z M-15 4.75 C-16.21977329 7.18954658 -16.20153813 8.90305849 -16.25 11.625 C-16.27578125 12.48867188 -16.3015625 13.35234375 -16.328125 14.2421875 C-15.93204185 17.26939441 -15.11662903 18.57484667 -13 20.75 C-9.63239813 21.9216367 -9.63239813 21.9216367 -6 21.75 C-3.19810554 19.98358828 -1.48475089 18.71950178 0 15.75 C0.49692649 9.38205051 0.49692649 9.38205051 -2 3.75 C-6.80986355 0.5434243 -10.4884921 1.5797512 -15 4.75 Z " fill="#000000" transform="translate(375,830.25)"/>
<path d="M0 0 C0.85464844 -0.01675781 1.70929687 -0.03351562 2.58984375 -0.05078125 C5.56568275 0.38642732 6.90107084 1.24777908 9.0625 3.3125 C10.02338383 6.19515149 10.17920941 7.98912271 10.16015625 10.98046875 C10.15693359 11.87314453 10.15371094 12.76582031 10.15039062 13.68554688 C10.14201172 14.61431641 10.13363281 15.54308594 10.125 16.5 C10.12048828 17.44037109 10.11597656 18.38074219 10.11132812 19.34960938 C10.09954626 21.67063712 10.08309558 23.99153644 10.0625 26.3125 C9.27875 26.126875 8.495 25.94125 7.6875 25.75 C5.09160225 25.05287734 5.09160225 25.05287734 3.0625 26.3125 C-1.01413219 26.72173721 -4.69796976 26.90127686 -8.4375 25.125 C-10.38892457 22.76702864 -10.86449082 21.37888543 -10.9375 18.3125 C-9.26283337 14.52246499 -7.76637104 12.80488183 -3.9375 11.3125 C-1.359375 11.1171875 -1.359375 11.1171875 1.3125 11.1875 C2.20453125 11.20554687 3.0965625 11.22359375 4.015625 11.2421875 C5.02882813 11.27699219 5.02882813 11.27699219 6.0625 11.3125 C5.4025 9.3325 4.7425 7.3525 4.0625 5.3125 C-0.12743811 4.36024134 -2.22534151 4.13640709 -5.9375 6.3125 C-6.9275 6.3125 -7.9175 6.3125 -8.9375 6.3125 C-8.625 4.4375 -8.625 4.4375 -7.9375 2.3125 C-4.73125113 0.17500075 -3.71291897 0.01675001 0 0 Z M-5.9375 17.3125 C-5.6075 18.9625 -5.2775 20.6125 -4.9375 22.3125 C-1.61457176 23.35684887 -0.36991099 23.5287055 2.8125 21.9375 C4.92648896 20.50158852 4.92648896 20.50158852 6.0625 19.3125 C6.10313832 17.64632885 6.105221 15.97861905 6.0625 14.3125 C1.03995369 14.0170561 -1.83292386 14.32735372 -5.9375 17.3125 Z " fill="#000000" transform="translate(738.9375,828.6875)"/>
<path d="M0 0 C1.32 0 2.64 0 4 0 C4.33 0.66 4.66 1.32 5 2 C5.99 1.34 6.98 0.68 8 0 C12.28611103 -0.67883158 15.85485473 -0.77297306 19.5 1.6875 C22.67479636 6.58197773 22.12385762 12.18175822 22.0625 17.8125 C22.05798828 18.60076172 22.05347656 19.38902344 22.04882812 20.20117188 C22.03711312 22.13414761 22.01917998 24.06708393 22 26 C20.35 26 18.7 26 17 26 C16.505 16.1 16.505 16.1 16 6 C13.525 5.01 13.525 5.01 11 4 C8.65829471 5.11763207 6.83675639 6.16324361 5 8 C4.84417697 9.34015221 4.74955858 10.68758903 4.68359375 12.03515625 C4.64169922 12.84404297 4.59980469 13.65292969 4.55664062 14.48632812 C4.51732422 15.33646484 4.47800781 16.18660156 4.4375 17.0625 C4.39431641 17.91650391 4.35113281 18.77050781 4.30664062 19.65039062 C4.20023298 21.76672037 4.09958269 23.88333813 4 26 C2.68 26 1.36 26 0 26 C0 17.42 0 8.84 0 0 Z " fill="#000000" transform="translate(974,829)"/>
<path d="M0 0 C1.32 0 2.64 0 4 0 C4.33 0.66 4.66 1.32 5 2 C5.99 1.34 6.98 0.68 8 0 C12.28611103 -0.67883158 15.85485473 -0.77297306 19.5 1.6875 C22.67479636 6.58197773 22.12385762 12.18175822 22.0625 17.8125 C22.05798828 18.60076172 22.05347656 19.38902344 22.04882812 20.20117188 C22.03711312 22.13414761 22.01917998 24.06708393 22 26 C20.35 26 18.7 26 17 26 C16.505 16.1 16.505 16.1 16 6 C13.525 5.01 13.525 5.01 11 4 C8.65829471 5.11763207 6.83675639 6.16324361 5 8 C4.84417697 9.34015221 4.74955858 10.68758903 4.68359375 12.03515625 C4.64169922 12.84404297 4.59980469 13.65292969 4.55664062 14.48632812 C4.51732422 15.33646484 4.47800781 16.18660156 4.4375 17.0625 C4.39431641 17.91650391 4.35113281 18.77050781 4.30664062 19.65039062 C4.20023298 21.76672037 4.09958269 23.88333813 4 26 C2.68 26 1.36 26 0 26 C0 17.42 0 8.84 0 0 Z " fill="#000000" transform="translate(759,829)"/>
<path d="M0 0 C1.32 0 2.64 0 4 0 C4.06058594 1.25296875 4.12117187 2.5059375 4.18359375 3.796875 C4.26802256 5.44792724 4.35266939 7.09896835 4.4375 8.75 C4.47681641 9.575 4.51613281 10.4 4.55664062 11.25 C4.59853516 12.04921875 4.64042969 12.8484375 4.68359375 13.671875 C4.72025146 14.4050293 4.75690918 15.13818359 4.79467773 15.89355469 C5.00114785 18.01177605 5.43132086 19.9519456 6 22 C11.3086849 21.41825155 11.3086849 21.41825155 16 19 C16.50621513 16.97723319 16.50621513 16.97723319 16.51171875 14.6484375 C16.54716797 13.79765625 16.58261719 12.946875 16.61914062 12.0703125 C16.64169922 11.18085937 16.66425781 10.29140625 16.6875 9.375 C16.72166016 8.4778125 16.75582031 7.580625 16.79101562 6.65625 C16.87362402 4.43762462 16.94272719 2.2194006 17 0 C18.32 0 19.64 0 21 0 C21 8.58 21 17.16 21 26 C19.68 26 18.36 26 17 26 C17 25.34 17 24.68 17 24 C16.505 24.33 16.01 24.66 15.5 25 C11.97538516 26.40984593 8.74577338 26.64608822 5 26 C2.56880377 24.12984906 1.35930827 22.71861655 0 20 C-0.08372659 18.47851674 -0.10730027 16.95344222 -0.09765625 15.4296875 C-0.09443359 14.53378906 -0.09121094 13.63789062 -0.08789062 12.71484375 C-0.07951172 11.77769531 -0.07113281 10.84054687 -0.0625 9.875 C-0.05798828 8.93011719 -0.05347656 7.98523438 -0.04882812 7.01171875 C-0.03702357 4.67441613 -0.02055759 2.33723939 0 0 Z " fill="#000000" transform="translate(631,829)"/>
<path d="M0 0 C1.32 0 2.64 0 4 0 C4.06058594 1.25296875 4.12117188 2.5059375 4.18359375 3.796875 C4.26802256 5.44792724 4.35266939 7.09896835 4.4375 8.75 C4.47681641 9.575 4.51613281 10.4 4.55664062 11.25 C4.59853516 12.04921875 4.64042969 12.8484375 4.68359375 13.671875 C4.72025146 14.4050293 4.75690918 15.13818359 4.79467773 15.89355469 C5.00114785 18.01177605 5.43132086 19.9519456 6 22 C11.3086849 21.41825155 11.3086849 21.41825155 16 19 C16.50621513 16.97723319 16.50621513 16.97723319 16.51171875 14.6484375 C16.54716797 13.79765625 16.58261719 12.946875 16.61914062 12.0703125 C16.64169922 11.18085937 16.66425781 10.29140625 16.6875 9.375 C16.72166016 8.4778125 16.75582031 7.580625 16.79101562 6.65625 C16.87362402 4.43762462 16.94272719 2.2194006 17 0 C18.32 0 19.64 0 21 0 C21 8.58 21 17.16 21 26 C19.68 26 18.36 26 17 26 C17 25.34 17 24.68 17 24 C16.505 24.33 16.01 24.66 15.5 25 C11.97538516 26.40984593 8.74577338 26.64608822 5 26 C2.56880377 24.12984906 1.35930827 22.71861655 0 20 C-0.08372659 18.47851674 -0.10730027 16.95344222 -0.09765625 15.4296875 C-0.09443359 14.53378906 -0.09121094 13.63789062 -0.08789062 12.71484375 C-0.07951172 11.77769531 -0.07113281 10.84054687 -0.0625 9.875 C-0.05798828 8.93011719 -0.05347656 7.98523438 -0.04882812 7.01171875 C-0.03702357 4.67441613 -0.02055759 2.33723939 0 0 Z " fill="#000000" transform="translate(278,829)"/>
<path d="M0 0 C0.99 0.66 1.98 1.32 3 2 C3 2.99 3 3.98 3 5 C2.06027344 4.87431641 2.06027344 4.87431641 1.1015625 4.74609375 C-0.12433594 4.59333984 -0.12433594 4.59333984 -1.375 4.4375 C-2.59316406 4.28087891 -2.59316406 4.28087891 -3.8359375 4.12109375 C-6.04899186 3.81762672 -6.04899186 3.81762672 -8 5 C-7.79452528 6.94608888 -7.79452528 6.94608888 -7 9 C-5.25783608 10.2381618 -5.25783608 10.2381618 -3.125 11.0625 C-0.17884831 12.32901908 2.00854662 13.43058539 4 16 C3.89050976 22.13145349 3.89050976 22.13145349 1.2578125 24.69921875 C-1.4045539 26.23307344 -3.0103234 26.3723466 -6.0625 26.3125 C-7.34833984 26.30669922 -7.34833984 26.30669922 -8.66015625 26.30078125 C-11 26 -11 26 -14 24 C-14 23.01 -14 22.02 -14 21 C-13.31292969 21.09539063 -12.62585938 21.19078125 -11.91796875 21.2890625 C-11.01691406 21.39992188 -10.11585938 21.51078125 -9.1875 21.625 C-8.29417969 21.74101563 -7.40085937 21.85703125 -6.48046875 21.9765625 C-3.74309609 22.23500743 -3.74309609 22.23500743 -1 20 C-2.38529462 16.5511936 -3.61371505 15.35649967 -7 13.875 C-9.56720838 12.7329698 -10.98199302 12.01800698 -13 10 C-13.45409879 6.51857596 -13.39476404 4.65221885 -11.5625 1.625 C-7.85660314 -0.72508094 -4.28644991 -0.67888525 0 0 Z " fill="#000000" transform="translate(917,829)"/>
<path d="M0 0 C1.29550781 -0.03867187 1.29550781 -0.03867187 2.6171875 -0.078125 C5.57524649 0.30891076 6.91701784 1.29875995 9.125 3.25 C8.795 4.24 8.465 5.23 8.125 6.25 C7.25875 5.899375 6.3925 5.54875 5.5 5.1875 C1.82243677 4.16595466 -0.23632292 4.17493632 -3.875 5.25 C-6.70160904 9.48991356 -6.52560387 13.27288038 -5.875 18.25 C-4.47412251 21.0713337 -4.47412251 21.0713337 -1.875 22.25 C1.11532674 22.15466321 1.11532674 22.15466321 4.125 21.25 C5.07375 21.064375 6.0225 20.87875 7 20.6875 C8.051875 20.4709375 8.051875 20.4709375 9.125 20.25 C8.8125 22.125 8.8125 22.125 8.125 24.25 C3.87342215 27.08438524 0.11540941 26.887752 -4.875 26.25 C-8.26679534 24.41277753 -9.47509522 23.01345458 -11.25 19.625 C-12.34507711 13.71158361 -12.19645122 8.33874547 -8.9375 3.1875 C-5.89312192 0.32762968 -4.08943944 0.07280901 0 0 Z " fill="#000000" transform="translate(593.875,828.75)"/>
<path d="M0 0 C1.29550781 -0.03867187 1.29550781 -0.03867187 2.6171875 -0.078125 C5.57524649 0.30891076 6.91701784 1.29875995 9.125 3.25 C8.795 4.24 8.465 5.23 8.125 6.25 C7.25875 5.899375 6.3925 5.54875 5.5 5.1875 C1.82243677 4.16595466 -0.23632292 4.17493632 -3.875 5.25 C-6.70160904 9.48991356 -6.52560387 13.27288038 -5.875 18.25 C-4.47412251 21.0713337 -4.47412251 21.0713337 -1.875 22.25 C1.11532674 22.15466321 1.11532674 22.15466321 4.125 21.25 C5.07375 21.064375 6.0225 20.87875 7 20.6875 C8.051875 20.4709375 8.051875 20.4709375 9.125 20.25 C8.8125 22.125 8.8125 22.125 8.125 24.25 C3.87342215 27.08438524 0.11540941 26.887752 -4.875 26.25 C-8.26679534 24.41277753 -9.47509522 23.01345458 -11.25 19.625 C-12.34507711 13.71158361 -12.19645122 8.33874547 -8.9375 3.1875 C-5.89312192 0.32762968 -4.08943944 0.07280901 0 0 Z " fill="#000000" transform="translate(468.875,828.75)"/>
<path d="M0 0 C1.32 0 2.64 0 4 0 C4 2.31 4 4.62 4 7 C6.64 7 9.28 7 12 7 C12 7.99 12 8.98 12 10 C9.36 10 6.72 10 4 10 C4.33 16.27 4.66 22.54 5 29 C7.31 29 9.62 29 12 29 C11.67 30.32 11.34 31.64 11 33 C5.04296875 33.48828125 5.04296875 33.48828125 3 33 C-0.8468292 28.74101053 -0.35366558 24.08575089 -0.1875 18.6875 C-0.17396484 17.85154297 -0.16042969 17.01558594 -0.14648438 16.15429688 C-0.11131217 14.10258502 -0.05751048 12.05120725 0 10 C-1.32 10 -2.64 10 -4 10 C-4 9.01 -4 8.02 -4 7 C-2.68 7 -1.36 7 0 7 C0 4.69 0 2.38 0 0 Z " fill="#000000" transform="translate(611,822)"/>
<path d="M0 0 C1.32 0 2.64 0 4 0 C4 2.31 4 4.62 4 7 C6.64 7 9.28 7 12 7 C12 7.99 12 8.98 12 10 C9.36 10 6.72 10 4 10 C4.33 16.27 4.66 22.54 5 29 C7.31 29 9.62 29 12 29 C11.67 30.32 11.34 31.64 11 33 C5.04296875 33.48828125 5.04296875 33.48828125 3 33 C-0.8468292 28.74101053 -0.35366558 24.08575089 -0.1875 18.6875 C-0.17396484 17.85154297 -0.16042969 17.01558594 -0.14648438 16.15429688 C-0.11131217 14.10258502 -0.05751048 12.05120725 0 10 C-1.32 10 -2.64 10 -4 10 C-4 9.01 -4 8.02 -4 7 C-2.68 7 -1.36 7 0 7 C0 4.69 0 2.38 0 0 Z " fill="#000000" transform="translate(534,822)"/>
<path d="M0 0 C1.32 0 2.64 0 4 0 C4 2.31 4 4.62 4 7 C6.64 7 9.28 7 12 7 C12 7.99 12 8.98 12 10 C9.36 10 6.72 10 4 10 C4.33 16.27 4.66 22.54 5 29 C7.31 29 9.62 29 12 29 C11.67 30.32 11.34 31.64 11 33 C5.04296875 33.48828125 5.04296875 33.48828125 3 33 C-0.8468292 28.74101053 -0.35366558 24.08575089 -0.1875 18.6875 C-0.17396484 17.85154297 -0.16042969 17.01558594 -0.14648438 16.15429688 C-0.11131217 14.10258502 -0.05751048 12.05120725 0 10 C-1.32 10 -2.64 10 -4 10 C-4 9.01 -4 8.02 -4 7 C-2.68 7 -1.36 7 0 7 C0 4.69 0 2.38 0 0 Z " fill="#000000" transform="translate(258,822)"/>
<path d="M0 0 C1.32 0 2.64 0 4 0 C4.33 0.66 4.66 1.32 5 2 C5.66 1.34 6.32 0.68 7 0 C9.68839385 -0.26991906 12.29141936 -0.08737357 15 0 C15 1.32 15 2.64 15 4 C13.906875 4.0825 12.81375 4.165 11.6875 4.25 C8.1 4.65833333 8.1 4.65833333 6.3125 6.5 C4.38472826 10.17194617 4.43127662 13.65729702 4.3125 17.75 C4.27833984 18.54277344 4.24417969 19.33554687 4.20898438 20.15234375 C4.12680896 22.10107504 4.06171955 24.05051362 4 26 C2.68 26 1.36 26 0 26 C0 17.42 0 8.84 0 0 Z " fill="#000000" transform="translate(663,829)"/>
<path d="M0 0 C1.32 0 2.64 0 4 0 C4.33 0.66 4.66 1.32 5 2 C5.66 1.34 6.32 0.68 7 0 C9.68839385 -0.26991906 12.29141936 -0.08737357 15 0 C15 1.32 15 2.64 15 4 C13.906875 4.0825 12.81375 4.165 11.6875 4.25 C8.1 4.65833333 8.1 4.65833333 6.3125 6.5 C4.38472826 10.17194617 4.43127662 13.65729702 4.3125 17.75 C4.27833984 18.54277344 4.24417969 19.33554687 4.20898438 20.15234375 C4.12680896 22.10107504 4.06171955 24.05051362 4 26 C2.68 26 1.36 26 0 26 C0 17.42 0 8.84 0 0 Z " fill="#000000" transform="translate(438,829)"/>
<path d="M0 0 C1.32 0 2.64 0 4 0 C4 8.58 4 17.16 4 26 C2.68 26 1.36 26 0 26 C0 17.42 0 8.84 0 0 Z " fill="#000000" transform="translate(930,829)"/>
<path d="M0 0 C1.32 0 2.64 0 4 0 C4 8.58 4 17.16 4 26 C2.68 26 1.36 26 0 26 C0 17.42 0 8.84 0 0 Z " fill="#000000" transform="translate(518,829)"/>
<path d="M0 0 C1.32 0 2.64 0 4 0 C4 8.58 4 17.16 4 26 C2.68 26 1.36 26 0 26 C0 17.42 0 8.84 0 0 Z " fill="#000000" transform="translate(342,829)"/>
<path d="M0 0 C1.65 0 3.3 0 5 0 C5 1.65 5 3.3 5 5 C3.35 5 1.7 5 0 5 C0 3.35 0 1.7 0 0 Z " fill="#000000" transform="translate(930,819)"/>
<path d="M0 0 C1.65 0 3.3 0 5 0 C5 1.65 5 3.3 5 5 C3.35 5 1.7 5 0 5 C0 3.35 0 1.7 0 0 Z " fill="#000000" transform="translate(518,819)"/>
<path d="M0 0 C1.65 0 3.3 0 5 0 C5 1.65 5 3.3 5 5 C3.35 5 1.7 5 0 5 C0 3.35 0 1.7 0 0 Z " fill="#000000" transform="translate(342,819)"/>
</svg>
