<?xml version="1.0" encoding="UTF-8"?>
<svg version="1.1" xmlns="http://www.w3.org/2000/svg" width="1227" height="1226">
<path d="M0 0 C0.84473373 -0.00570007 1.68946747 -0.01140015 2.55979919 -0.01727295 C4.34234382 -0.02667762 6.12490547 -0.03323879 7.9074707 -0.03710938 C10.58902675 -0.0467596 13.26979696 -0.0778033 15.95117188 -0.109375 C29.8657077 -0.1981275 42.22679727 1.12623904 54.87109375 7.453125 C55.67716064 7.8464502 56.48322754 8.23977539 57.3137207 8.64501953 C68.99947976 14.49796585 68.99947976 14.49796585 73.05859375 19.203125 C73.05859375 20.193125 73.05859375 21.183125 73.05859375 22.203125 C73.73921875 22.38875 74.41984375 22.574375 75.12109375 22.765625 C80.73573056 25.51321322 85.38848197 30.54877065 88.05859375 36.203125 C88.05859375 37.193125 88.05859375 38.183125 88.05859375 39.203125 C88.71859375 39.203125 89.37859375 39.203125 90.05859375 39.203125 C90.37109375 41.42578125 90.37109375 41.42578125 90.05859375 44.203125 C87.93359375 46.44921875 87.93359375 46.44921875 85.05859375 48.640625 C84.05183594 49.41148437 83.04507813 50.18234375 82.0078125 50.9765625 C80.54794922 52.07871094 80.54794922 52.07871094 79.05859375 53.203125 C78.32253906 53.83476563 77.58648437 54.46640625 76.828125 55.1171875 C73.67468373 57.77337955 71.10890791 59.60519714 66.93359375 60.015625 C61.58287325 58.89369973 60.15502702 56.46772173 57.05859375 52.203125 C55.82250361 50.75364667 54.57240604 49.3159968 53.30859375 47.890625 C52.73625 47.23449219 52.16390625 46.57835937 51.57421875 45.90234375 C50.44189376 44.63285568 49.26145697 43.40598822 48.05859375 42.203125 C48.05859375 41.213125 48.05859375 40.223125 48.05859375 39.203125 C47.39085937 39.1 46.723125 38.996875 46.03515625 38.890625 C42.33776335 38.03663399 38.92837068 36.65018107 35.43359375 35.203125 C20.74984385 29.19355941 4.35185768 28.44886378 -10.94140625 33.203125 C-14.27218593 34.63267532 -17.38928433 36.17925743 -20.5234375 37.99609375 C-22.94140625 39.203125 -22.94140625 39.203125 -26.94140625 39.203125 C-27.00972656 39.76773438 -27.07804687 40.33234375 -27.1484375 40.9140625 C-28.24988794 44.09361896 -30.16024079 45.5624141 -32.62890625 47.828125 C-45.0116192 59.89287955 -49.86653485 75.49964725 -50.17578125 92.49853516 C-50.27392813 109.09455896 -47.93209421 123.01490375 -38.33203125 136.890625 C-36.94140625 139.203125 -36.94140625 139.203125 -36.94140625 142.203125 C-36.40386719 142.27015625 -35.86632812 142.3371875 -35.3125 142.40625 C-31.97734278 143.52712656 -29.66190657 145.72993951 -27.00390625 147.953125 C-13.36495952 158.82567249 2.91443809 161.28281546 19.94921875 159.734375 C34.04252239 158.11174765 46.91421472 151.932712 56.08984375 141.01171875 C61.33738589 133.52564176 64.40784481 124.89169096 67.05859375 116.203125 C66.44218018 116.27313721 65.8257666 116.34314941 65.19067383 116.4152832 C57.03629789 117.25699163 48.93917884 117.38659891 40.74609375 117.390625 C39.40169094 117.40280109 38.05728986 117.4151699 36.71289062 117.42773438 C34.78606445 117.43063477 34.78606445 117.43063477 32.8203125 117.43359375 C31.66490967 117.43770264 30.50950684 117.44181152 29.3190918 117.44604492 C25.87853621 117.18971001 23.22132055 116.57604959 20.05859375 115.203125 C17.22871596 110.95830832 17.6906947 107.3200953 17.68359375 102.328125 C17.65910156 101.42964844 17.63460937 100.53117188 17.609375 99.60546875 C17.59026454 95.29287555 17.64616972 92.87013176 19.95703125 89.1328125 C23.56779795 85.81735014 25.92035928 86.07681337 30.75561523 86.07373047 C31.78758026 86.07110199 31.78758026 86.07110199 32.84039307 86.06842041 C35.12018336 86.06401042 37.39989639 86.06693721 39.6796875 86.0703125 C41.26147985 86.06963914 42.84327209 86.06866884 44.42506409 86.06741333 C47.74310286 86.06593745 51.06111474 86.06808711 54.37915039 86.07275391 C58.63414626 86.07844648 62.88907899 86.07517449 67.14407253 86.06918144 C70.41169206 86.06556891 73.6792966 86.06671769 76.94691658 86.06930923 C78.51581899 86.06997683 80.08472275 86.06915592 81.65362358 86.06682968 C83.84651163 86.06429235 86.03929732 86.06815926 88.23217773 86.07373047 C89.48079086 86.07452606 90.72940399 86.07532166 92.01585388 86.07614136 C95.05859375 86.203125 95.05859375 86.203125 98.05859375 87.203125 C98.05859375 88.193125 98.05859375 89.183125 98.05859375 90.203125 C99.04859375 90.203125 100.03859375 90.203125 101.05859375 90.203125 C106.02600331 108.15529817 99.50642219 127.52861785 93.05859375 144.203125 C92.06859375 144.203125 91.07859375 144.203125 90.05859375 144.203125 C89.92904297 145.49283203 89.92904297 145.49283203 89.796875 146.80859375 C88.94390044 150.7304715 87.4771125 153.19186237 85.24609375 156.515625 C84.55902344 157.56363281 83.87195313 158.61164063 83.1640625 159.69140625 C80.97198459 162.30644539 80.28105511 162.70357313 77.05859375 163.203125 C76.79046875 163.904375 76.52234375 164.605625 76.24609375 165.328125 C72.53780386 174.30608999 62.48788274 179.38179443 54.03125 183.09277344 C51.90584909 183.9751073 49.77055333 184.8187221 47.62109375 185.640625 C46.60994507 186.02939819 46.60994507 186.02939819 45.57836914 186.42602539 C41.95990731 187.74252863 38.91347084 188.50765286 35.05859375 188.203125 C35.05859375 188.863125 35.05859375 189.523125 35.05859375 190.203125 C18.88859375 190.203125 2.71859375 190.203125 -13.94140625 190.203125 C-13.94140625 189.543125 -13.94140625 188.883125 -13.94140625 188.203125 C-14.54799072 188.18241943 -15.1545752 188.16171387 -15.77954102 188.14038086 C-22.64139373 187.70850678 -27.79043522 185.86565128 -33.87890625 182.765625 C-35.1328418 182.15364258 -35.1328418 182.15364258 -36.41210938 181.52929688 C-39.73677896 179.89233105 -42.85276943 178.26221621 -45.94140625 176.203125 C-45.94140625 175.213125 -45.94140625 174.223125 -45.94140625 173.203125 C-46.62203125 173.161875 -47.30265625 173.120625 -48.00390625 173.078125 C-52.10272919 171.85719902 -55.14880938 169.4383525 -57.94140625 166.203125 C-57.94140625 165.213125 -57.94140625 164.223125 -57.94140625 163.203125 C-58.54879639 163.09693848 -59.15618652 162.99075195 -59.78198242 162.88134766 C-63.40520212 161.74338221 -65.12834041 158.55303014 -67.25390625 155.578125 C-67.73593506 154.91095459 -68.21796387 154.24378418 -68.71459961 153.55639648 C-75.89312778 143.31934753 -82.58280036 131.03100717 -81.94140625 118.203125 C-82.60140625 118.203125 -83.26140625 118.203125 -83.94140625 118.203125 C-83.94140625 103.683125 -83.94140625 89.163125 -83.94140625 74.203125 C-83.28140625 74.203125 -82.62140625 74.203125 -81.94140625 74.203125 C-81.92722656 73.63207031 -81.91304687 73.06101562 -81.8984375 72.47265625 C-81.18673168 60.37365739 -75.4822766 49.77076432 -69.94140625 39.203125 C-68.95140625 39.203125 -67.96140625 39.203125 -66.94140625 39.203125 C-66.86664063 38.48769531 -66.791875 37.77226563 -66.71484375 37.03515625 C-65.73340509 33.44150461 -64.0719309 31.62724173 -61.56640625 28.890625 C-60.77492187 28.00761719 -59.9834375 27.12460937 -59.16796875 26.21484375 C-56.94140625 24.203125 -56.94140625 24.203125 -53.94140625 24.203125 C-53.86535156 23.61917969 -53.78929687 23.03523437 -53.7109375 22.43359375 C-51.77330915 16.81742224 -44.63068931 13.57146308 -39.55859375 10.99072266 C-26.40515989 4.69962598 -14.74660222 0.07884135 0 0 Z " fill="#FDFBFB" transform="translate(308.94140625,611.796875)"/>
<path d="M0 0 C1.98384417 -0.01645407 3.9676317 -0.04360201 5.95117188 -0.08203125 C18.80692774 -0.32905079 29.65195177 0.52705801 41.62744141 5.35009766 C42.45453613 5.66946289 43.28163086 5.98882813 44.13378906 6.31787109 C54.86259734 10.72919562 63.36485407 17.34379099 71.62744141 25.35009766 C72.17932129 25.87748535 72.73120117 26.40487305 73.29980469 26.94824219 C82.39756683 35.76499237 82.39756683 35.76499237 83.15087891 40.95947266 C82.55282296 44.83344699 81.88144194 45.87014467 78.87744141 48.28759766 C78.18134766 48.87412109 77.48525391 49.46064453 76.76806641 50.06494141 C74.62744141 51.35009766 74.62744141 51.35009766 70.62744141 51.35009766 C70.60681641 51.92759766 70.58619141 52.50509766 70.56494141 53.10009766 C69.31586148 56.09788948 67.35390687 57.12909705 64.52978516 58.58447266 C61.66693181 59.73666825 59.66479178 59.8783325 56.62744141 59.35009766 C50.9226275 56.06982966 46.68591475 49.52551768 44.62744141 43.35009766 C42.79459698 42.22493681 42.79459698 42.22493681 40.62744141 41.35009766 C39.29410807 40.68343099 37.96077474 40.01676432 36.62744141 39.35009766 C36.62744141 38.36009766 36.62744141 37.37009766 36.62744141 36.35009766 C35.74056641 36.26759766 34.85369141 36.18509766 33.93994141 36.10009766 C31.50169799 35.7797794 29.48077106 35.29269473 27.18212891 34.39306641 C13.23693663 29.01637783 -5.71294084 28.75418101 -19.74365234 34.06103516 C-23.41208545 35.85982108 -26.8750693 37.87794643 -30.25146484 40.17822266 C-32.37255859 41.35009766 -32.37255859 41.35009766 -36.37255859 41.35009766 C-36.46537109 42.21634766 -36.46537109 42.21634766 -36.56005859 43.10009766 C-37.37255859 45.35009766 -37.37255859 45.35009766 -39.70458984 47.17822266 C-49.0313311 54.77070895 -54.49665176 69.02915919 -56.09130859 80.69775391 C-57.77519719 102.56491831 -56.40871661 124.22307194 -41.99755859 141.91259766 C-33.0096443 151.14452772 -21.08742993 157.37986534 -8.37255859 159.35009766 C-7.66744141 159.46095703 -6.96232422 159.57181641 -6.23583984 159.68603516 C11.74468501 162.0748302 26.78672686 158.86056726 41.75244141 148.60009766 C44.64881483 146.66463786 44.64881483 146.66463786 45.62744141 144.35009766 C46.61744141 144.35009766 47.60744141 144.35009766 48.62744141 144.35009766 C49.0315625 143.04492188 49.0315625 143.04492188 49.44384766 141.71337891 C50.9410839 137.45885611 52.99108277 133.62514049 55.09228516 129.64306641 C56.33853064 126.96982227 57.31046515 124.43639489 58.22338867 121.64428711 C58.48797379 120.83868851 58.7525589 120.0330899 59.02516174 119.20307922 C59.22391403 118.59159531 59.42266632 117.98011139 59.62744141 117.35009766 C57.7582605 117.37366333 57.7582605 117.37366333 55.85131836 117.39770508 C51.22019943 117.45207839 46.58910863 117.48647477 41.95776367 117.51489258 C39.95478569 117.52996231 37.95184061 117.55042175 35.94897461 117.57641602 C33.0669746 117.61287893 30.18541156 117.62984226 27.30322266 117.64306641 C26.41033035 117.65855026 25.51743805 117.67403412 24.5974884 117.68998718 C19.76927057 117.69128885 16.55075692 117.49611598 12.62744141 114.35009766 C9.77054195 110.72106322 10.36938305 106.18821067 10.43994141 101.78759766 C10.4409082 100.63614258 10.4409082 100.63614258 10.44189453 99.46142578 C10.46764783 96.17931085 10.5832382 93.48270728 11.62744141 90.35009766 C12.61744141 90.35009766 13.60744141 90.35009766 14.62744141 90.35009766 C14.62744141 89.36009766 14.62744141 88.37009766 14.62744141 87.35009766 C18.04180025 86.21197804 20.69719958 86.20218436 24.29858398 86.1730957 C24.97213425 86.16652451 25.64568451 86.15995331 26.33964539 86.15318298 C28.567089 86.13348427 30.7944653 86.12179516 33.02197266 86.11181641 C33.7840119 86.10774088 34.54605114 86.10366535 35.33118248 86.09946632 C39.36458438 86.07862027 43.3979524 86.0643122 47.43139648 86.05493164 C51.59100235 86.04386967 55.75007291 86.0094686 59.90948963 85.96975994 C63.11375402 85.94357922 66.3178911 85.93523855 69.52225304 85.93165016 C71.05521956 85.92678799 72.58818053 85.91518443 74.12104225 85.89661217 C76.27049485 85.8721878 78.41856552 85.87319071 80.56811523 85.88012695 C81.78928543 85.87426071 83.01045563 85.86839447 84.26863098 85.86235046 C88.5590192 86.48537604 91.55603786 88.27869411 94.62744141 91.35009766 C96.22716467 118.14546233 89.68698641 142.99739167 72.06884766 163.68603516 C61.10200663 175.65305208 45.73065404 187.73202858 28.68603516 188.47900391 C28.00669922 188.43646484 27.32736328 188.39392578 26.62744141 188.35009766 C26.62744141 189.01009766 26.62744141 189.67009766 26.62744141 190.35009766 C10.45744141 190.35009766 -5.71255859 190.35009766 -22.37255859 190.35009766 C-22.37255859 189.69009766 -22.37255859 189.03009766 -22.37255859 188.35009766 C-23.53142578 188.24955078 -24.69029297 188.14900391 -25.88427734 188.04541016 C-30.36394972 187.4799094 -34.09902329 186.09479889 -38.18505859 184.22509766 C-38.88228027 183.90871338 -39.57950195 183.5923291 -40.29785156 183.26635742 C-49.83214699 178.84215416 -57.48320563 173.57104843 -64.99755859 166.22509766 C-65.61453613 165.62689209 -66.23151367 165.02868652 -66.8671875 164.41235352 C-69.99907482 161.23411038 -72.14299402 159.02968314 -72.37255859 154.35009766 C-73.36255859 154.35009766 -74.35255859 154.35009766 -75.37255859 154.35009766 C-89.83890245 128.60063594 -95.54779824 103.88465497 -90.37255859 74.35009766 C-90.19515137 73.33278564 -90.19515137 73.33278564 -90.01416016 72.29492188 C-85.6629902 48.4299172 -71.93578124 28.89177946 -52.49755859 14.47509766 C-35.88209738 3.56102019 -19.54911961 0.11828576 0 0 Z " fill="#FDFBFB" transform="translate(627.37255859375,611.64990234375)"/>
<path d="M0 0 C0.99386719 -0.03738281 1.98773437 -0.07476563 3.01171875 -0.11328125 C3.97464844 -0.12488281 4.93757812 -0.13648438 5.9296875 -0.1484375 C7.24428955 -0.1781665 7.24428955 -0.1781665 8.58544922 -0.20849609 C12.35164946 0.65683928 13.72859373 2.38098065 16.125 5.375 C16.59478417 8.27705133 16.76202648 10.57921789 16.69262695 13.4699707 C16.69335709 14.27049362 16.69408722 15.07101654 16.69483948 15.89579773 C16.69136685 18.53149097 16.65252334 21.16539829 16.61328125 23.80078125 C16.60395192 25.63208552 16.59683637 27.46340229 16.59184265 29.29472351 C16.57278226 34.10697077 16.52368984 38.91845948 16.46832275 43.73040771 C16.40810013 49.50808283 16.38520945 55.28601206 16.35605621 61.06391144 C16.30762409 69.83480132 16.21180311 78.60402794 16.125 87.375 C42.525 87.375 68.925 87.375 96.125 87.375 C96.10179687 81.57421875 96.07859375 75.7734375 96.0546875 69.796875 C96.04446939 66.12369345 96.03484152 62.4505294 96.02734375 58.77734375 C96.01538454 52.94608932 96.00123106 47.11489765 95.97412109 41.28369141 C95.952403 36.58287111 95.94043353 31.88211812 95.93524551 27.18125153 C95.93154791 25.3870869 95.92432749 23.59292598 95.91353989 21.79878998 C95.89903872 19.28732825 95.89702148 16.77614524 95.89794922 14.26464844 C95.89075867 13.52161972 95.88356812 12.778591 95.87615967 12.01304626 C95.89092795 8.322517 95.98206655 5.46097996 98.125 2.375 C102.5195094 -0.59054408 107.45926207 0.04510655 112.5625 0.0625 C113.97499023 0.03833008 113.97499023 0.03833008 115.41601562 0.01367188 C116.7859668 0.01270508 116.7859668 0.01270508 118.18359375 0.01171875 C119.01173584 0.00873779 119.83987793 0.00575684 120.69311523 0.00268555 C123.90055952 0.4937359 125.5857346 1.33362118 128.125 3.375 C128.7542057 6.51006889 128.7542057 6.51006889 128.75991821 10.45968628 C128.76771817 11.18559404 128.77551812 11.91150181 128.78355443 12.65940678 C128.80354403 15.09880787 128.78768415 17.53666079 128.77197266 19.97607422 C128.77874586 21.72208571 128.78764732 23.46809006 128.79852295 25.21408081 C128.82136175 29.96219871 128.81246028 34.70977478 128.79662752 39.45790243 C128.78398816 44.42305072 128.79570353 49.38815193 128.80355835 54.353302 C128.81266235 62.69444118 128.80064911 71.03535922 128.77685547 79.37646484 C128.74966058 89.02131265 128.75844344 98.66563173 128.7859875 108.31046665 C128.80867746 116.58659132 128.81187865 124.86255679 128.79879415 133.13870251 C128.79099673 138.08361355 128.78996569 143.02827613 128.80647659 147.97317123 C128.82091981 152.62399403 128.81090244 157.2741356 128.78200531 161.9248848 C128.77539292 163.63208637 128.77729483 165.33934526 128.78831863 167.04652405 C128.80198116 169.37723898 128.78485332 171.70577072 128.75991821 174.03634644 C128.75803308 175.34047422 128.75614796 176.64460201 128.7542057 177.98824883 C127.96518332 182.23522635 126.45778928 183.71703351 123.125 186.375 C120.78491211 186.97436523 120.78491211 186.97436523 118.40234375 186.93359375 C117.10006836 186.92295898 117.10006836 186.92295898 115.77148438 186.91210938 C114.43053711 186.86280273 114.43053711 186.86280273 113.0625 186.8125 C112.16466797 186.80669922 111.26683594 186.80089844 110.34179688 186.79492188 C106.00565173 186.71432438 102.95396686 186.55822594 99.125 184.375 C99.125 183.385 99.125 182.395 99.125 181.375 C98.465 181.375 97.805 181.375 97.125 181.375 C97.125 158.935 97.125 136.495 97.125 113.375 C70.395 113.375 43.665 113.375 16.125 113.375 C16.36237307 135.52912591 16.36237307 135.52912591 16.66552734 157.68237305 C16.69262695 161.97619629 16.69262695 161.97619629 16.69766235 163.98908997 C16.70685031 165.38898675 16.72790137 166.78883727 16.75845337 168.18843079 C17.00109522 179.89341825 17.00109522 179.89341825 14.91879272 183.4148407 C12.06324554 186.00205524 9.09285932 186.99885316 5.3046875 186.93359375 C4.00724609 186.92295898 4.00724609 186.92295898 2.68359375 186.91210938 C1.35521484 186.86280273 1.35521484 186.86280273 0 186.8125 C-1.33998047 186.80379883 -1.33998047 186.80379883 -2.70703125 186.79492188 C-10.27347369 186.6535459 -10.27347369 186.6535459 -13.875 184.375 C-16.29119631 180.75070554 -16.11798934 179.10361638 -16.10205078 174.79223633 C-16.10229185 174.1178461 -16.10253292 173.44345587 -16.1027813 172.74862957 C-16.10128978 170.56796209 -16.08606484 168.38763748 -16.0703125 166.20703125 C-16.06737155 164.85982426 -16.06533143 163.512615 -16.06420898 162.16540527 C-16.05372762 157.17273531 -16.02580516 152.18011428 -16 147.1875 C-15.938125 130.4503125 -15.938125 130.4503125 -15.875 113.375 C-44.255 113.375 -72.635 113.375 -101.875 113.375 C-101.875 104.795 -101.875 96.215 -101.875 87.375 C-73.495 87.375 -45.115 87.375 -15.875 87.375 C-15.9541894 60.19466262 -15.9541894 60.19466262 -16.05517578 33.0144043 C-16.06420898 27.75939941 -16.06420898 27.75939941 -16.06588745 25.29988098 C-16.06896011 23.58083563 -16.0759973 21.8617946 -16.08615112 20.14277649 C-16.10075745 17.54001365 -16.10281311 14.93751439 -16.10205078 12.3347168 C-16.109247 11.56793704 -16.11644321 10.80115728 -16.1238575 10.01114178 C-16.10906868 6.24793241 -16.01711978 4.58817967 -13.875 1.375 C-9.31172321 -0.14609226 -4.78097494 0.06768433 0 0 Z " fill="#5C5C5C" transform="translate(870.875,613.625)"/>
<path d="M0 0 C13.2 0 26.4 0 40 0 C40 0.66 40 1.32 40 2 C40.71671875 2.1134375 41.4334375 2.226875 42.171875 2.34375 C52.54890937 4.75168063 61.19901546 12.29852319 67 21 C67 22.32 67 23.64 67 25 C67.66 25 68.32 25 69 25 C69 25.99 69 26.98 69 28 C69.66 28 70.32 28 71 28 C71 30.31 71 32.62 71 35 C70.04738281 35.54269531 69.09476562 36.08539063 68.11328125 36.64453125 C66.84633756 37.36715839 65.57941141 38.08981627 64.3125 38.8125 C63.68666016 39.16892578 63.06082031 39.52535156 62.41601562 39.89257812 C61.80048828 40.24384766 61.18496094 40.59511719 60.55078125 40.95703125 C59.94443848 41.30258057 59.3380957 41.64812988 58.71337891 42.00415039 C57.20070226 42.88334789 55.71332259 43.80576131 54.23046875 44.734375 C51.23324232 46.43507791 49.39628728 46.4952919 46 46 C42.48733234 43.8923994 40.44507633 41.28984369 38.125 38 C35.21355239 33.94961822 32.47282509 32.15039668 28 30 C27.34 29.67 26.68 29.34 26 29 C17.41492132 28.37563064 10.56199662 28.30108382 3.6875 33.875 C-0.65594284 39.34452061 -0.71514332 45.30023626 0 52 C0.97406746 56.06325284 2.55555743 58.92474519 5.94287109 61.44628906 C13.12196877 65.70290889 20.60866527 69.11444495 28.25 72.4375 C59.49397171 86.09181544 59.49397171 86.09181544 65 93 C65 93.99 65 94.98 65 96 C65.58652344 96.061875 66.17304688 96.12375 66.77734375 96.1875 C71.51751548 97.92028685 73.71260433 103.76305644 76 108 C81.44493347 120.67863569 82.48494038 138.38545053 78.0234375 151.50390625 C77.68570313 152.32761719 77.34796875 153.15132812 77 154 C76.62101562 154.95777344 76.24203125 155.91554688 75.8515625 156.90234375 C70.48735535 168.9485546 61.78306804 178.10313717 50 184 C49.19393311 184.43989258 48.38786621 184.87978516 47.55737305 185.33300781 C38.05308842 189.98653633 29.06396203 189.57556063 18.75 189.3125 C17.02216802 189.28736259 15.29430044 189.26455911 13.56640625 189.24414062 C9.37670837 189.18962869 5.18875802 189.10366634 1 189 C1 188.34 1 187.68 1 187 C0.0925 186.95875 -0.815 186.9175 -1.75 186.875 C-14.26034668 184.93677727 -23.92675951 176.08596568 -31.26855469 166.31103516 C-37.42712298 157.54226285 -40.10207388 150.69223863 -40 140 C-37.77208002 138.87247351 -35.54274113 137.74791861 -33.3125 136.625 C-32.68666016 136.30789063 -32.06082031 135.99078125 -31.41601562 135.6640625 C-24.85200572 132.36487428 -20.35079781 130.29992402 -13 131 C-9.17315762 133.9603875 -7.87432973 137.29715842 -6.1875 141.75 C-3.17595485 149.20775829 0.27408224 154.56674759 7.0625 159 C15.72115718 162.00322794 26.77738483 160.77641771 35 157 C39.55637913 154.49983299 42.37150868 152.08021946 45 147.5625 C47.49664187 138.91519074 47.23912358 129.61874315 43.5 121.4375 C36.99076137 110.25534464 25.3983344 106.81305242 14 102 C-3.57394092 94.57780599 -22.37878588 86.35553084 -31 68 C-33.69779669 60.94331093 -34.46926497 54.45251268 -34.375 46.9375 C-34.38660156 46.00873047 -34.39820313 45.07996094 -34.41015625 44.12304688 C-34.3712559 34.88421454 -31.81056146 27.7964272 -27 20 C-26.01 20 -25.02 20 -24 20 C-23.814375 19.319375 -23.62875 18.63875 -23.4375 17.9375 C-19.5649542 10.02403684 -11.93971688 5.31936096 -4 2 C-2.68 2 -1.36 2 0 2 C0 1.34 0 0.68 0 0 Z " fill="#FDFBFB" transform="translate(271,411)"/>
<path d="M0 0 C3.66489709 3.81415668 5.72129474 8.18467628 7.890625 12.93359375 C8.24010193 13.68915054 8.58957886 14.44470734 8.949646 15.22315979 C9.68261991 16.81418214 10.41190772 18.40690729 11.13769531 20.0012207 C12.24766079 22.43237644 13.37700163 24.8538736 14.5078125 27.27539062 C15.21994717 28.8275763 15.93092427 30.3802937 16.640625 31.93359375 C17.14677338 33.01198769 17.14677338 33.01198769 17.66314697 34.11216736 C19.52305384 38.25120043 20.38998893 41.36411997 20 46 C20.99 46 21.98 46 23 46 C24.18064075 48.53596815 25.34452081 51.07759222 26.5 53.625 C26.83386719 54.33785156 27.16773438 55.05070312 27.51171875 55.78515625 C29.42268839 60.03608871 30.42059924 63.23821577 30 68 C30.99 68 31.98 68 33 68 C33.32049316 68.75168457 33.64098633 69.50336914 33.97119141 70.27783203 C40.07142335 84.55198637 46.26874632 98.7645083 52.875 112.8125 C53.44974951 114.03611286 54.02445629 115.25974579 54.59912109 116.48339844 C54.8870755 117.09649872 55.17502991 117.709599 55.47171021 118.34127808 C55.76206146 118.95955475 56.05241272 119.57783142 56.3515625 120.21484375 C56.64328339 120.83594025 56.93500427 121.45703674 57.23556519 122.09695435 C60.60483852 129.27747989 63.9401576 136.47340207 67.24420166 143.68417358 C67.90679529 145.12743271 68.57189635 146.56954374 69.23968506 148.01040649 C70.17163669 150.02219218 71.09462949 152.03786715 72.015625 154.0546875 C72.54446289 155.20437012 73.07330078 156.35405273 73.61816406 157.53857422 C74.69821454 160.24404341 75.38999485 162.55984535 75.99902344 165.37158203 C76.3293457 166.56895996 76.65966797 167.76633789 77 169 C77.99 169.33 78.98 169.66 80 170 C80.08121924 171.60332791 80.13929134 173.20784026 80.1875 174.8125 C80.22230469 175.70582031 80.25710938 176.59914063 80.29296875 177.51953125 C80 180 80 180 78.61328125 181.76171875 C74.43988555 184.96502732 69.75688934 184.41649615 64.6875 184.5625 C63.73681641 184.62501953 62.78613281 184.68753906 61.80664062 184.75195312 C55.07823061 184.90711562 55.07823061 184.90711562 52.46777344 182.7109375 C51.04046945 180.55183286 50.03772073 178.37355344 49 176 C48.46044678 174.88665283 47.92089355 173.77330566 47.36499023 172.6262207 C45.47953649 168.73418943 43.67530105 164.80696324 41.875 160.875 C40.94207174 158.85002818 40.00763452 156.82576077 39.07254028 154.80178833 C38.22793838 152.97173575 37.38704936 151.13997094 36.54638672 149.30810547 C35.51827981 147.1087293 34.44016715 144.93202364 33.31298828 142.78173828 C31.82434046 139.62784216 31.7538818 137.44565484 32 134 C31.01 134 30.02 134 29 134 C27.77051063 131.27097837 26.54140951 128.54178276 25.3125 125.8125 C24.72432495 124.50684082 24.72432495 124.50684082 24.12426758 123.17480469 C21.62330243 117.61923661 19.13189829 112.0595008 16.6484375 106.49609375 C15.78106071 104.55483352 14.91354554 102.61363518 14.04598999 100.67245483 C13.47847836 99.40160079 12.91159312 98.13046682 12.34536743 96.85903931 C8.65111115 88.53109274 8.65111115 88.53109274 4.62890625 80.359375 C2.94467672 76.88590403 2.61968669 74.8031331 3 71 C2.01 71 1.02 71 0 71 C-0.99 68.69 -1.98 66.38 -3 64 C-5.81007097 66.43872742 -7.03267676 68.92096744 -8.48046875 72.32421875 C-8.92197266 73.35224609 -9.36347656 74.38027344 -9.81835938 75.43945312 C-10.49608398 77.04723633 -10.49608398 77.04723633 -11.1875 78.6875 C-11.65091797 79.77095703 -12.11433594 80.85441406 -12.59179688 81.97070312 C-13.73432767 84.64446075 -14.87010033 87.32088586 -16 90 C-16.99 90 -17.98 90 -19 90 C-19.06574219 91.08539063 -19.13148438 92.17078125 -19.19921875 93.2890625 C-19.93686241 99.10103204 -22.39004803 104.09176342 -24.8125 109.375 C-25.30459961 110.47005859 -25.79669922 111.56511719 -26.30371094 112.69335938 C-27.85576643 116.1351725 -29.42482883 119.56871039 -31 123 C-31.47937012 124.04575195 -31.95874023 125.09150391 -32.45263672 126.16894531 C-34.36486045 130.3330511 -36.28274589 134.49440993 -38.21362305 138.64990234 C-41.18818612 145.05214896 -44.12354868 151.46989477 -47.0234375 157.90625 C-47.7112571 159.43034122 -48.3990826 160.95442977 -49.08691406 162.47851562 C-50.10225057 164.72887781 -51.11599606 166.97989035 -52.12487793 169.2331543 C-53.06108683 171.3238998 -54.00269774 173.41213654 -54.9453125 175.5 C-55.36482681 176.44341248 -55.36482681 176.44341248 -55.79281616 177.40588379 C-56.98164703 180.02794044 -57.94479847 181.94479847 -60 184 C-62.18310547 184.25878906 -62.18310547 184.25878906 -64.8671875 184.265625 C-65.83527344 184.26820313 -66.80335938 184.27078125 -67.80078125 184.2734375 C-68.81527344 184.26570312 -69.82976563 184.25796875 -70.875 184.25 C-71.88175781 184.25773438 -72.88851562 184.26546875 -73.92578125 184.2734375 C-74.89644531 184.27085937 -75.86710938 184.26828125 -76.8671875 184.265625 C-77.75519043 184.26336914 -78.64319336 184.26111328 -79.55810547 184.25878906 C-82.17266705 183.98170095 -83.78995015 183.40645169 -86 182 C-87.51692611 178.96614779 -87.48985394 176.28304804 -87 173 C-85.68576391 169.10531775 -83.9755459 165.41503961 -82.25 161.6875 C-81.50943359 160.04793335 -81.50943359 160.04793335 -80.75390625 158.37524414 C-79.18361645 154.91007535 -77.59387779 151.45437494 -76 148 C-74.99465995 145.80735206 -73.98944924 143.6146448 -72.984375 141.421875 C-70.4928553 136.00081101 -67.98509807 130.58740113 -65.47314453 125.17578125 C-58.90076944 111.0071609 -52.44343221 96.79754851 -46.19067383 82.48486328 C-42.93075323 75.0482594 -39.55399899 67.67246705 -36.125 60.3125 C-29.46096005 45.99984701 -23.21608247 31.51125386 -17 17 C-16.01 17 -15.02 17 -14 17 C-13.9175 15.845 -13.835 14.69 -13.75 13.5 C-13.17789126 8.91495709 -11.72385087 4.76642828 -9 1 C-5.65521839 -0.1149272 -3.50226752 -0.42884908 0 0 Z " fill="#FDFBFB" transform="translate(916,414)"/>
<path d="M0 0 C6.99548313 11.3851989 12.45243122 23.37561933 17.89013672 35.56494141 C18.58827109 37.09665989 19.33189865 38.60921714 20.13720703 40.08740234 C21.46107997 43.02209975 21.12182241 45.8326174 21 49 C21.99 49 22.98 49 24 49 C24.2995459 49.70455322 24.5990918 50.40910645 24.90771484 51.13500977 C32.73726358 69.49734035 40.93385232 87.6670304 49.33708191 105.77336121 C49.90692558 107.001231 49.90692558 107.001231 50.48828125 108.25390625 C50.86668655 109.06906204 51.24509186 109.88421783 51.63496399 110.72407532 C54.16921516 116.1897118 56.67888182 121.665998 59.16796875 127.15234375 C59.49750046 127.87862473 59.82703217 128.6049057 60.16654968 129.35319519 C61.75402284 132.8551563 63.33715696 136.35902741 64.91577148 139.86499023 C67.49661305 145.58477952 70.10158697 151.27930897 72.9296875 156.8828125 C80.04762148 170.99641572 80.04762148 170.99641572 79.70703125 178.96875 C78.74197031 181.74130077 77.48856718 182.48203528 75 184 C72.52636719 184.34057617 72.52636719 184.34057617 69.796875 184.29296875 C68.32734375 184.2784668 68.32734375 184.2784668 66.828125 184.26367188 C65.81234375 184.23853516 64.7965625 184.21339844 63.75 184.1875 C62.71875 184.17396484 61.6875 184.16042969 60.625 184.14648438 C58.08280208 184.11117607 55.54166777 184.06186036 53 184 C52.55011719 183.10023438 52.10023438 182.20046875 51.63671875 181.2734375 C51.33306396 180.6664502 51.02940918 180.05946289 50.71655273 179.43408203 C50.01060298 178.02151257 49.30574402 176.6083976 48.60180664 175.19482422 C46.60784759 171.19503984 44.59593093 167.20624172 42.546875 163.234375 C36.28124446 151.01382609 30.63308164 138.56687536 25.13745117 125.98779297 C19.76750522 113.69956793 14.2799913 101.46699282 8.75 89.25 C8.12593262 87.86899109 8.12593262 87.86899109 7.48925781 86.46008301 C6.30154694 83.83211964 5.11207002 81.2049641 3.921875 78.578125 C3.56937683 77.79832275 3.21687866 77.01852051 2.85369873 76.21508789 C1.37940118 72.96786242 -0.12020297 69.76504254 -1.74511719 66.58886719 C-3 64 -3 64 -3 62 C-3.66 62 -4.32 62 -5 62 C-5.09716309 62.67643555 -5.19432617 63.35287109 -5.29443359 64.04980469 C-6.16268683 67.68024486 -7.66720618 70.86417165 -9.2890625 74.203125 C-9.62428421 74.90555832 -9.95950592 75.60799164 -10.30488586 76.33171082 C-11.02882207 77.84788456 -11.75514889 79.36291869 -12.48361206 80.87692261 C-14.43252606 84.92893998 -16.36273438 88.98984011 -18.29296875 93.05078125 C-18.88523003 94.29572105 -18.88523003 94.29572105 -19.48945618 95.56581116 C-23.40340545 103.81232222 -27.18347691 112.11724547 -30.9375 120.4375 C-35.36688262 130.24980889 -39.86906566 140.01658273 -44.56494141 149.70507812 C-47.93553907 156.71637617 -50.97620889 163.8565172 -53.87060547 171.07714844 C-55.96623182 176.15581946 -57.75265272 180.42238268 -62 184 C-65.55092613 184.80605232 -68.93748561 184.74905936 -72.5625 184.625 C-73.98079102 184.63466797 -73.98079102 184.63466797 -75.42773438 184.64453125 C-79.3987486 184.5827911 -82.18320114 184.47395987 -85.65234375 182.4609375 C-87.53522269 179.02263682 -87.39357625 175.80665568 -87 172 C-85.8293457 168.52270508 -85.8293457 168.52270508 -84.17578125 165.01953125 C-83.87775101 164.37631424 -83.57972076 163.73309723 -83.2726593 163.07038879 C-82.2995928 160.97772804 -81.30610447 158.89547589 -80.3125 156.8125 C-79.63227049 155.35739287 -78.95374308 153.90148894 -78.27685547 152.44482422 C-76.88458173 149.45067123 -75.48603605 146.45957126 -74.08349609 143.47021484 C-71.1451066 137.18809955 -68.30625706 130.86167314 -65.47689819 124.52987671 C-64.63734714 122.65260868 -63.79426959 120.77695917 -62.95043945 118.90161133 C-62.44343506 117.77134521 -61.93643066 116.6410791 -61.4140625 115.4765625 C-60.74818115 113.992771 -60.74818115 113.992771 -60.06884766 112.47900391 C-58.93361029 109.94286868 -58.93361029 109.94286868 -58 107 C-57.01 107 -56.02 107 -55 107 C-54.84422485 105.2375293 -54.84422485 105.2375293 -54.68530273 103.43945312 C-54.15206065 99.22257677 -52.85273075 95.83106256 -51.03515625 91.96875 C-50.73033325 91.31189713 -50.42551025 90.65504425 -50.1114502 89.97828674 C-49.45082774 88.55789262 -48.78518531 87.13982448 -48.11502075 85.72390747 C-46.66588812 82.66198506 -45.24126354 79.58885072 -43.81468201 76.51637268 C-43.05631858 74.88381397 -42.29666182 73.2518555 -41.53578186 71.62046814 C-37.11907583 62.142702 -32.84141491 52.60304821 -28.5625 43.0625 C-27.83550772 41.44394758 -27.10837867 39.82545658 -26.38110352 38.20703125 C-26.02845932 37.42165985 -25.67581512 36.63628845 -25.31248474 35.82711792 C-24.61153659 34.26808799 -23.90905273 32.70974754 -23.20497131 31.15213013 C-21.30957993 26.95232348 -19.45329736 22.73944431 -17.64013672 18.50341797 C-17.24535629 17.59401962 -16.85057587 16.68462128 -16.4438324 15.74766541 C-15.68605128 14.00077509 -14.93872805 12.24929747 -14.20375061 10.49269104 C-11.17275991 3.55780728 -8.22630069 -0.76523727 0 0 Z " fill="#FDFBFB" transform="translate(505,414)"/>
<path d="M0 0 C0.89009766 -0.02900391 1.78019531 -0.05800781 2.69726562 -0.08789062 C8.39676794 -0.14281541 11.7976482 0.33595807 16.1875 4.3125 C21.38999896 10.07574223 24.73729186 16.85407617 28.1875 23.75 C31.45385503 30.2529386 34.72153751 36.41968194 39.0859375 42.26196289 C40.42837136 44.76087734 40.39187291 46.51666648 40.1875 49.3125 C41.1775 49.3125 42.1675 49.3125 43.1875 49.3125 C47.1475 56.2425 51.1075 63.1725 55.1875 70.3125 C60.35385764 62.29087319 65.28988548 54.16232354 70.125 45.9375 C74.15530951 39.08871021 78.20445354 32.2584974 82.390625 25.50390625 C85.82749518 19.94605624 89.03284759 14.30092227 92.11523438 8.54101562 C93.90811575 5.27277569 95.03121119 3.41669254 98.1875 1.3125 C102.46324594 0.81774976 106.76123268 0.89592508 111.0625 0.875 C112.24714844 0.84212891 113.43179688 0.80925781 114.65234375 0.77539062 C124.37988336 0.7150733 124.37988336 0.7150733 127.48828125 3.6328125 C129.49451157 6.79666078 129.61541796 8.63240558 129.1875 12.3125 C128.1975 12.3125 127.2075 12.3125 126.1875 12.3125 C126.07212891 13.04807129 125.95675781 13.78364258 125.83789062 14.54150391 C125.17746288 17.35526325 124.28668768 19.19907055 122.78125 21.6484375 C122.28874756 22.45893555 121.79624512 23.26943359 121.28881836 24.10449219 C120.49616577 25.38308105 120.49616577 25.38308105 119.6875 26.6875 C118.59460652 28.47108122 117.50216325 30.25493839 116.41015625 32.0390625 C115.59442139 33.36599121 115.59442139 33.36599121 114.76220703 34.71972656 C113.30686957 37.11595662 111.89204403 39.52975851 110.49609375 41.9609375 C109.89087891 43.00628662 109.89087891 43.00628662 109.2734375 44.07275391 C108.52178518 45.37504268 107.77795594 46.68188594 107.04296875 47.99365234 C106.02734375 49.734375 106.02734375 49.734375 104.1875 52.3125 C103.1975 52.3125 102.2075 52.3125 101.1875 52.3125 C101.07575439 53.0334082 100.96400879 53.75431641 100.84887695 54.49707031 C99.6803277 59.47149261 96.89337001 63.65609581 94.375 68.0625 C93.84068359 69.03316406 93.30636719 70.00382812 92.75585938 71.00390625 C92.23185547 71.92558594 91.70785156 72.84726562 91.16796875 73.796875 C90.69254639 74.63959961 90.21712402 75.48232422 89.72729492 76.35058594 C88.1875 78.3125 88.1875 78.3125 86.0012207 79.09472656 C85.10342896 79.20252441 85.10342896 79.20252441 84.1875 79.3125 C84.09210938 80.02921875 83.99671875 80.7459375 83.8984375 81.484375 C83.07608862 84.75569692 81.72936127 86.7963964 79.8125 89.5625 C73.82235443 98.69501702 72.01867124 107.44766234 72.12158203 118.36181641 C72.12625488 119.0278035 72.13092773 119.69379059 72.13574219 120.37995911 C72.1461702 121.81275756 72.15880712 123.24554135 72.17346573 124.67830276 C72.19564972 126.94857279 72.20962256 129.21875746 72.22116089 131.48910522 C72.25461215 137.9394691 72.29649959 144.38969025 72.35888672 150.83984375 C72.39657425 154.79660051 72.4195658 158.75321545 72.43319321 162.71012497 C72.44123069 164.21321971 72.45481589 165.71629567 72.47412491 167.21928787 C72.50066499 169.32036084 72.50850177 171.42075261 72.51220703 173.52197266 C72.52672409 175.3123143 72.52672409 175.3123143 72.54153442 177.13882446 C72.14762833 180.66992214 71.32037038 182.49726414 69.1875 185.3125 C64.74170106 188.27636596 60.54502419 187.71969581 55.3125 187.75 C54.31863281 187.78287109 53.32476563 187.81574219 52.30078125 187.84960938 C51.33785156 187.85669922 50.37492188 187.86378906 49.3828125 187.87109375 C48.50641113 187.88454834 47.63000977 187.89800293 46.72705078 187.91186523 C42.99133788 187.03019102 41.58645801 185.26730851 39.1875 182.3125 C38.70308941 179.60194992 38.523321 177.51971572 38.57568359 174.81933594 C38.57001877 174.08203751 38.56435394 173.34473907 38.55851746 172.58509827 C38.54504811 170.15516831 38.56594296 167.72673923 38.5859375 165.296875 C38.58043382 163.59921248 38.57230604 161.90155662 38.56167603 160.20391846 C38.53879539 155.73562468 38.5430038 151.26782006 38.55548096 146.79949951 C38.57378308 139.66278613 38.56366437 132.52636256 38.52962112 125.3897171 C38.52355514 122.90751417 38.53673257 120.42594013 38.55160522 117.94378662 C38.55892768 107.72191884 38.03958023 99.30893773 31.4375 90.9375 C28.57753149 87.16657855 25.7987998 83.38629482 23.1875 79.4375 C22.61 78.57382812 22.0325 77.71015625 21.4375 76.8203125 C20.06607668 74.06889446 19.92672664 72.34399035 20.1875 69.3125 C19.1975 69.3125 18.2075 69.3125 17.1875 69.3125 C15.0355563 66.08458445 14.98663557 65.02849191 15.1875 61.3125 C14.1975 61.3125 13.2075 61.3125 12.1875 61.3125 C10.42919922 58.96435547 10.42919922 58.96435547 8.4921875 55.6796875 C8.14311844 55.09548035 7.79404938 54.51127319 7.43440247 53.90936279 C6.30060431 52.00772706 5.18181805 50.09768757 4.0625 48.1875 C2.90836535 46.2458507 1.75028891 44.30658971 0.59202576 42.36740112 C-0.16789097 41.09449114 -0.92655504 39.82083246 -1.6839447 38.54641724 C-6.20866722 30.9383945 -10.94300289 23.46886019 -15.97265625 16.18359375 C-18.21770876 12.68016785 -18.96416528 10.48329514 -18.8125 6.3125 C-12.94098047 0.17409321 -7.95733174 0.08531807 0 0 Z " fill="#FDFBFB" transform="translate(651.8125,410.6875)"/>
<path d="M0 0 C0.99386719 -0.03738281 1.98773437 -0.07476563 3.01171875 -0.11328125 C3.97464844 -0.12488281 4.93757812 -0.13648438 5.9296875 -0.1484375 C7.24428955 -0.1781665 7.24428955 -0.1781665 8.58544922 -0.20849609 C12.35164946 0.65683928 13.72859373 2.38098065 16.125 5.375 C16.59478417 8.27705133 16.76202648 10.57921789 16.69262695 13.4699707 C16.69335709 14.27049362 16.69408722 15.07101654 16.69483948 15.89579773 C16.69136685 18.53149097 16.65252334 21.16539829 16.61328125 23.80078125 C16.60395192 25.63208552 16.59683637 27.46340229 16.59184265 29.29472351 C16.57278226 34.10697077 16.52368984 38.91845948 16.46832275 43.73040771 C16.41710951 48.64373514 16.39432418 53.55718553 16.36914062 58.47070312 C16.31556979 68.10585509 16.22764186 77.74024569 16.125 87.375 C5.565 87.375 -4.995 87.375 -15.875 87.375 C-15.92014575 76.60495949 -15.95685551 65.83498161 -15.97862434 55.06486797 C-15.98907113 50.06412433 -16.00324667 45.06344866 -16.02587891 40.06274414 C-16.04757535 35.23873538 -16.05956188 30.41479208 -16.06475449 25.5907383 C-16.068456 23.74829897 -16.07568392 21.9058633 -16.08646011 20.06345177 C-16.10093254 17.48712738 -16.10297973 14.91107515 -16.10205078 12.3347168 C-16.10924133 11.56939133 -16.11643188 10.80406586 -16.12384033 10.01554871 C-16.10910689 6.2509112 -16.01794328 4.58941493 -13.875 1.375 C-9.31172321 -0.14609226 -4.78097494 0.06768433 0 0 Z " fill="#EDECEC" transform="translate(870.875,613.625)"/>
<path d="M0 0 C0.91652344 -0.00257813 1.83304688 -0.00515625 2.77734375 -0.0078125 C4.20240234 0.00378906 4.20240234 0.00378906 5.65625 0.015625 C6.60628906 0.00789062 7.55632813 0.00015625 8.53515625 -0.0078125 C9.90994141 -0.00394531 9.90994141 -0.00394531 11.3125 0 C12.14587891 0.00225586 12.97925781 0.00451172 13.83789062 0.00683594 C16.15625 0.265625 16.15625 0.265625 20.15625 2.265625 C20.15625 30.315625 20.15625 58.365625 20.15625 87.265625 C9.92625 87.265625 -0.30375 87.265625 -10.84375 87.265625 C-10.88892023 76.7736229 -10.9256197 66.2816853 -10.94737434 55.789608 C-10.95781504 50.91780741 -10.97197952 46.04607675 -10.99462891 41.17431641 C-11.016347 36.47349611 -11.02831647 31.77274312 -11.03350449 27.07187653 C-11.03720209 25.2777119 -11.04442251 23.48355098 -11.05521011 21.68941498 C-11.06971128 19.17795325 -11.07172852 16.66677024 -11.07080078 14.15527344 C-11.07799133 13.41224472 -11.08518188 12.669216 -11.09259033 11.90367126 C-11.07782158 8.21302551 -10.98640114 5.3518513 -8.84375 2.265625 C-5.91019483 0.28005148 -3.49542634 0.00946171 0 0 Z " fill="#F4F2F2" transform="translate(977.84375,613.734375)"/>
<path d="M0 0 C10.56 0 21.12 0 32 0 C32.24065286 16.76993884 32.24065286 16.76993884 32.29296875 23.92773438 C32.32881422 28.80891125 32.37118033 33.68941178 32.45263672 38.57006836 C32.51791142 42.50586659 32.55372251 46.44093951 32.56926346 50.37723732 C32.58033564 51.87761669 32.60195836 53.37795708 32.63438034 54.87802696 C32.87593245 66.51869351 32.87593245 66.51869351 30.79379272 70.0398407 C27.93824554 72.62705524 24.96785932 73.62385316 21.1796875 73.55859375 C20.31472656 73.55150391 19.44976563 73.54441406 18.55859375 73.53710938 C17.23021484 73.48780273 17.23021484 73.48780273 15.875 73.4375 C14.53501953 73.42879883 14.53501953 73.42879883 13.16796875 73.41992188 C5.60152631 73.2785459 5.60152631 73.2785459 2 71 C-0.41619631 67.37570554 -0.24298934 65.72861638 -0.22705078 61.41723633 C-0.22748886 60.42171501 -0.22748886 60.42171501 -0.22793579 59.40608215 C-0.22654357 57.21459839 -0.21098779 55.02345555 -0.1953125 52.83203125 C-0.19158198 51.31174404 -0.18873519 49.79145442 -0.18673706 48.27116394 C-0.17910366 44.27130486 -0.15945774 40.27159121 -0.1373291 36.27178955 C-0.11326575 31.47186539 -0.10408829 26.67189258 -0.09242249 21.87192535 C-0.0730331 14.58118245 -0.03470872 7.29075859 0 0 Z " fill="#EEECEC" transform="translate(855,727)"/>
<path d="M0 0 C9.9 0 19.8 0 30 0 C30.09031617 9.07503792 30.16372411 18.1497781 30.20724869 27.22516346 C30.22813678 31.43909697 30.25647611 35.65270748 30.30175781 39.86645508 C30.34517291 43.93187833 30.3691279 47.99699064 30.37950897 52.06262779 C30.38690823 53.61483342 30.40135723 55.16702175 30.42292023 56.71909523 C30.45189829 58.89098707 30.45595861 61.06158899 30.45410156 63.23364258 C30.46298401 64.47052322 30.47186646 65.70740387 30.48101807 66.98176575 C30 70 30 70 28.11077881 71.89962769 C25.6719382 73.17102224 24.11529343 73.37360198 21.375 73.36328125 C20.50359375 73.36263672 19.6321875 73.36199219 18.734375 73.36132812 C17.83203125 73.34521484 16.9296875 73.32910156 16 73.3125 C14.64648438 73.31733398 14.64648438 73.31733398 13.265625 73.32226562 C8.89683199 73.28672071 5.85875537 73.21294775 2 71 C2 70.01 2 69.02 2 68 C1.34 68 0.68 68 0 68 C0 45.56 0 23.12 0 0 Z " fill="#FAF8F8" transform="translate(968,727)"/>
<path d="M0 0 C0.69738281 0.00902344 1.39476562 0.01804687 2.11328125 0.02734375 C3.82566958 0.05080112 5.53788004 0.08666896 7.25 0.125 C7.58 1.775 7.91 3.425 8.25 5.125 C7.59 5.125 6.93 5.125 6.25 5.125 C6.29125 6.3625 6.3325 7.6 6.375 8.875 C6.32281968 14.78181254 6.32281968 14.78181254 4.25 17.125 C-0.17156704 18.82560271 -4.03446112 19.35502629 -8.75 19.125 C-8.75 19.785 -8.75 20.445 -8.75 21.125 C-7.93015625 21.10179687 -7.1103125 21.07859375 -6.265625 21.0546875 C-4.64914062 21.02761719 -4.64914062 21.02761719 -3 21 C-1.93265625 20.97679687 -0.8653125 20.95359375 0.234375 20.9296875 C3.20442219 21.12204807 4.78383136 21.51885784 7.25 23.125 C9.13886253 25.64348338 9.25715839 26.95319868 9.125 30.125 C8.12252339 33.56206266 7.02992173 34.9174151 4.25 37.125 C1.10480478 38.17339841 -1.32035023 38.35921029 -4.625 38.4375 C-6.16800781 38.49357422 -6.16800781 38.49357422 -7.7421875 38.55078125 C-11.57558826 38.00813101 -13.03783197 36.86098385 -15.75 34.125 C-16.2734375 31.27172852 -16.2734375 31.27172852 -16.125 28.00390625 C-16.07730469 26.82119141 -16.02960937 25.63847656 -15.98046875 24.41992188 C-15.90441406 23.18822266 -15.82835937 21.95652344 -15.75 20.6875 C-15.70488281 19.45966797 -15.65976562 18.23183594 -15.61328125 16.96679688 C-15.11729172 6.8430994 -15.11729172 6.8430994 -11.75 2.125 C-8.24294217 -0.56159934 -4.22371495 -0.1037964 0 0 Z M-9.75 7.125 C-10.33350505 9.66790625 -10.33350505 9.66790625 -9.75 12.125 C-7.80667668 14.50494368 -7.80667668 14.50494368 -4.25 14.375 C-0.69332332 14.50494368 -0.69332332 14.50494368 1.25 12.125 C1.83350505 9.66790625 1.83350505 9.66790625 1.25 7.125 C-3.51501775 3.58178168 -4.98498225 3.58178168 -9.75 7.125 Z M-9.125 26.875 C-11.02199297 28.97112969 -11.02199297 28.97112969 -10.5 31.375 C-10.2525 31.9525 -10.005 32.53 -9.75 33.125 C-4.71488101 34.1320238 -1.51052962 34.09887813 3.25 32.125 C3.06171228 29.68019921 3.06171228 29.68019921 2.25 27.125 C0.07340541 25.49255406 -1.56776168 25.15233575 -4.25 24.75 C-6.89705186 24.94800526 -6.89705186 24.94800526 -9.125 26.875 Z " fill="#FDFBFB" transform="translate(957.75,827.875)"/>
<path d="M0 0 C2.64 0 5.28 0 8 0 C9.58175939 3.99608412 11.14768933 7.99791585 12.69970703 12.00561523 C13.22900319 13.36599356 13.76246894 14.72475766 14.30029297 16.08178711 C15.07601143 18.04123179 15.83617213 20.00613796 16.59375 21.97265625 C17.05458984 23.15093994 17.51542969 24.32922363 17.99023438 25.54321289 C19.05765039 29.19735779 19.18601578 32.21415611 19 36 C17.35 36 15.7 36 14 36 C12.68373308 32.38026598 12 29.90432869 12 26 C6.72 26 1.44 26 -4 26 C-4.144375 27.464375 -4.28875 28.92875 -4.4375 30.4375 C-4.875 34.875 -4.875 34.875 -6 36 C-7.66617115 36.04063832 -9.33388095 36.042721 -11 36 C-10.52641069 28.01951622 -7.68780317 20.94188628 -4.9375 13.5 C-4.45951849 12.18777948 -3.98229833 10.87528137 -3.50585938 9.5625 C-2.34468235 6.37219545 -1.17588255 3.18490732 0 0 Z M3 6 C2.32389577 7.89248819 1.65949561 9.7891602 1 11.6875 C0.62875 12.74324219 0.2575 13.79898438 -0.125 14.88671875 C-1.22547556 18.26326584 -1.22547556 18.26326584 -1 23 C2.3 23 5.6 23 9 23 C7.7915371 17.05064416 6.25422333 11.63555833 4 6 C3.67 6 3.34 6 3 6 Z " fill="#FDFBFB" transform="translate(412,819)"/>
<path d="M0 0 C4.516875 -0.1546875 4.516875 -0.1546875 9.125 -0.3125 C10.06230957 -0.35802002 10.99961914 -0.40354004 11.96533203 -0.45043945 C16.20795824 -0.52047215 19.11936836 -0.40325476 22.5 2.32421875 C27.70145515 7.89140121 28.52538013 12.86970344 28.28125 20.28515625 C27.69356309 25.95796738 26.38401379 29.50137257 22.5 33.70703125 C18.38696336 36.99047452 14.16319893 36.55717787 9.125 36.3125 C6.11375 36.209375 3.1025 36.10625 0 36 C0 24.12 0 12.24 0 0 Z M4 3 C4 12.9 4 22.8 4 33 C11.98261093 32.68558307 11.98261093 32.68558307 19 30 C22.09694633 25.46518573 23.32259479 20.45646041 23 15 C21.58414027 10.63884919 19.48740099 7.01184631 16 4 C12.10402133 2.52565835 12.10402133 2.52565835 4 3 Z " fill="#FDFBFB" transform="translate(839,819)"/>
<path d="M0 0 C1.65 0 3.3 0 5 0 C5.33 4.29 5.66 8.58 6 13 C6.66 12.67 7.32 12.34 8 12 C12.09596585 11.73141208 15.00372989 11.65347127 18.875 13 C22.97976542 16.86330863 22.9409769 21.47937857 23.1484375 26.82421875 C23.20315362 30.55559117 23.20213243 34.2723019 23 38 C22.67 38.33 22.34 38.66 22 39 C20.02 39 18.04 39 16 39 C16 32.4 16 25.8 16 19 C9.36980013 18.35284977 9.36980013 18.35284977 6 21 C5.49468134 22.92441415 5.49468134 22.92441415 5.48828125 25.1328125 C5.45283203 25.93847656 5.41738281 26.74414062 5.38085938 27.57421875 C5.35830078 28.41597656 5.33574219 29.25773438 5.3125 30.125 C5.27833984 30.97449219 5.24417969 31.82398438 5.20898438 32.69921875 C5.12640827 34.79901105 5.06153022 36.89948564 5 39 C3.35 39 1.7 39 0 39 C0 26.13 0 13.26 0 0 Z " fill="#FDFBFB" transform="translate(486,816)"/>
<path d="M0 0 C1.4375 1.75 1.4375 1.75 1.4375 5.75 C0.67824219 5.66621094 -0.08101562 5.58242188 -0.86328125 5.49609375 C-1.85714844 5.39425781 -2.85101563 5.29242187 -3.875 5.1875 C-4.86113281 5.08308594 -5.84726563 4.97867188 -6.86328125 4.87109375 C-9.66180347 4.58397473 -9.66180347 4.58397473 -12.5625 5.75 C-12.5625 7.4 -12.5625 9.05 -12.5625 10.75 C-11.84449219 11.00910156 -11.12648437 11.26820313 -10.38671875 11.53515625 C-7.42275308 12.81011244 -5.01136198 14.33287319 -2.375 16.1875 C-1.51519531 16.78433594 -0.65539062 17.38117187 0.23046875 17.99609375 C2.4375 19.75 2.4375 19.75 4.4375 22.75 C4.25586153 28.38079242 3.69278103 31.73787789 -0.5625 35.75 C-5.74166147 37.46913343 -11.47356607 37.43210087 -16.625 35.75 C-17.264375 35.42 -17.90375 35.09 -18.5625 34.75 C-18.5625 33.1 -18.5625 31.45 -18.5625 29.75 C-13.2825 29.75 -8.0025 29.75 -2.5625 29.75 C-2.5625 27.44 -2.5625 25.13 -2.5625 22.75 C-3.27921875 22.481875 -3.9959375 22.21375 -4.734375 21.9375 C-7.59307903 20.73716019 -10.15396825 19.34193518 -12.8125 17.75 C-14.11960938 16.9765625 -14.11960938 16.9765625 -15.453125 16.1875 C-17.5625 14.75 -17.5625 14.75 -18.5625 12.75 C-18.81440882 8.29961093 -18.89514191 4.63773652 -16.5625 0.75 C-11.82142007 -2.26705087 -4.99996438 -2.43900702 0 0 Z " fill="#FDFBFB" transform="translate(245.5625,819.25)"/>
<path d="M0 0 C1.65 0 3.3 0 5 0 C5 12.87 5 25.74 5 39 C-11 40 -11 40 -17 35 C-19.33274924 30.33450152 -18.52866637 24.06255514 -18 19 C-16.42301479 15.65184857 -14.34877723 13.67438861 -11 12 C-9.50243129 11.90500497 -8.00057068 11.87012802 -6.5 11.875 C-5.30890625 11.87113281 -5.30890625 11.87113281 -4.09375 11.8671875 C-2 12 -2 12 0 13 C0 8.71 0 4.42 0 0 Z M-12 20 C-13.73392465 23.4678493 -13.61299548 27.21768744 -13 31 C-10.68743996 34.06724457 -10.68743996 34.06724457 -8 36 C-4.59687262 34.94124926 -1.98646769 33.99097846 1 32 C1.36498034 29.10391601 1.36498034 29.10391601 1.1875 25.875 C1.16042969 24.77929688 1.13335938 23.68359375 1.10546875 22.5546875 C1.05326172 21.29011719 1.05326172 21.29011719 1 20 C-0.134375 19.34 -1.26875 18.68 -2.4375 18 C-3.39462891 17.443125 -3.39462891 17.443125 -4.37109375 16.875 C-7.78389273 15.04174587 -9.31572583 17.71836695 -12 20 Z " fill="#FDFBFB" transform="translate(807,816)"/>
<path d="M0 0 C1.65 0 3.3 0 5 0 C5 12.87 5 25.74 5 39 C-11 40 -11 40 -17 35 C-19.33274924 30.33450152 -18.52866637 24.06255514 -18 19 C-16.42301479 15.65184857 -14.34877723 13.67438861 -11 12 C-9.50243129 11.90500497 -8.00057068 11.87012802 -6.5 11.875 C-5.30890625 11.87113281 -5.30890625 11.87113281 -4.09375 11.8671875 C-2 12 -2 12 0 13 C0 8.71 0 4.42 0 0 Z M-12 20 C-13.73392465 23.4678493 -13.61299548 27.21768744 -13 31 C-10.68743996 34.06724457 -10.68743996 34.06724457 -8 36 C-4.59687262 34.94124926 -1.98646769 33.99097846 1 32 C1.36498034 29.10391601 1.36498034 29.10391601 1.1875 25.875 C1.16042969 24.77929688 1.13335937 23.68359375 1.10546875 22.5546875 C1.05326172 21.29011719 1.05326172 21.29011719 1 20 C-0.134375 19.34 -1.26875 18.68 -2.4375 18 C-3.39462891 17.443125 -3.39462891 17.443125 -4.37109375 16.875 C-7.78389273 15.04174587 -9.31572583 17.71836695 -12 20 Z " fill="#FDFBFB" transform="translate(326,816)"/>
<path d="M0 0 C2.9375 1.125 2.9375 1.125 5 3 C7.07678869 7.83615827 7.2772429 12.0921447 7.1875 17.25 C7.18685547 17.96929688 7.18621094 18.68859375 7.18554688 19.4296875 C7.14098214 24.71803571 7.14098214 24.71803571 6 27 C-0.55327953 28.33740399 -7.92671418 29.31270136 -14 26 C-15.56935594 22.86128812 -15.35201103 20.46144178 -15 17 C-12.8272578 14.36983839 -11.05326212 12.52663106 -8 11 C-6.45386986 11.08651631 -4.91090613 11.24002636 -3.375 11.4375 C-2.55773437 11.53933594 -1.74046875 11.64117188 -0.8984375 11.74609375 C-0.27195312 11.82988281 0.35453125 11.91367187 1 12 C0.67 10.02 0.34 8.04 0 6 C-6.435 6.495 -6.435 6.495 -13 7 C-12.67 5.35 -12.34 3.7 -12 2 C-7.94581842 -0.70278772 -4.75493686 -0.52646928 0 0 Z M-4.0625 15.9375 C-5.13177734 16.19853516 -5.13177734 16.19853516 -6.22265625 16.46484375 C-8.00694248 16.84920508 -8.00694248 16.84920508 -9 18 C-9.04063832 19.66617115 -9.042721 21.33388095 -9 23 C-4.12358747 23.29852484 -4.12358747 23.29852484 0.4375 21.8125 C2.25678355 20.05640154 2.25678355 20.05640154 2.25 17.3125 C2.12625 16.1678125 2.12625 16.1678125 2 15 C-0.17973109 15 -1.94877586 15.41194608 -4.0625 15.9375 Z " fill="#FDFBFB" transform="translate(743,828)"/>
<path d="M0 0 C4.09024509 4.34588541 3 4.90476135 3 12.125 C-2.94 12.125 -8.88 12.125 -15 12.125 C-14.01 14.435 -13.02 16.745 -12 19.125 C-7.57004115 20.67033448 -2.66627548 20.20545303 2 20.125 C1.67 21.775 1.34 23.425 1 25.125 C-4.2364344 26.60925011 -9.52213636 26.7307 -14.8125 25.4375 C-18.88124082 22.99625551 -20.66821575 20.38104038 -21.875 15.8125 C-22.06648265 10.16376175 -21.17662729 5.96838276 -18.125 1.1875 C-13.47881761 -3.32202997 -5.29858633 -3.31161645 0 0 Z M-15 5.125 C-15 6.445 -15 7.765 -15 9.125 C-11.04 9.125 -7.08 9.125 -3 9.125 C-3 7.475 -3 5.825 -3 4.125 C-7.22539566 2.01230217 -11.19600662 2.58900441 -15 5.125 Z " fill="#FDFBFB" transform="translate(894,829.875)"/>
<path d="M0 0 C4.09024509 4.34588541 3 4.90476135 3 12.125 C-2.94 12.125 -8.88 12.125 -15 12.125 C-14.01 14.435 -13.02 16.745 -12 19.125 C-7.57004115 20.67033448 -2.66627548 20.20545303 2 20.125 C1.67 21.775 1.34 23.425 1 25.125 C-4.2364344 26.60925011 -9.52213636 26.7307 -14.8125 25.4375 C-18.88124082 22.99625551 -20.66821575 20.38104038 -21.875 15.8125 C-22.06648265 10.16376175 -21.17662729 5.96838276 -18.125 1.1875 C-13.47881761 -3.32202997 -5.29858633 -3.31161645 0 0 Z M-15 5.125 C-15 6.445 -15 7.765 -15 9.125 C-11.04 9.125 -7.08 9.125 -3 9.125 C-3 7.475 -3 5.825 -3 4.125 C-7.22539566 2.01230217 -11.19600662 2.58900441 -15 5.125 Z " fill="#FDFBFB" transform="translate(703,829.875)"/>
<path d="M0 0 C4.09024509 4.34588541 3 4.90476135 3 12.125 C-2.94 12.125 -8.88 12.125 -15 12.125 C-14.01 14.435 -13.02 16.745 -12 19.125 C-7.57004115 20.67033448 -2.66627548 20.20545303 2 20.125 C1.67 21.775 1.34 23.425 1 25.125 C-4.2364344 26.60925011 -9.52213636 26.7307 -14.8125 25.4375 C-18.88124082 22.99625551 -20.66821575 20.38104038 -21.875 15.8125 C-22.06648265 10.16376175 -21.17662729 5.96838276 -18.125 1.1875 C-13.47881761 -3.32202997 -5.29858633 -3.31161645 0 0 Z M-15 5.125 C-15 6.445 -15 7.765 -15 9.125 C-11.04 9.125 -7.08 9.125 -3 9.125 C-3 7.475 -3 5.825 -3 4.125 C-7.22539566 2.01230217 -11.19600662 2.58900441 -15 5.125 Z " fill="#FDFBFB" transform="translate(572,829.875)"/>
<path d="M0 0 C4.2368986 4.69085202 4.29506282 9.26976228 4.20703125 15.3359375 C3.94136644 18.75449226 3.40295281 20.51953258 1 23 C-4.20828447 25.96157352 -8.16835508 26.56435273 -14 26 C-17.73221614 24.34123727 -19.88883103 22.47512644 -22 19 C-22.77814676 13.57400367 -23.26943476 7.15658418 -20.3125 2.3125 C-14.93276091 -3.06723909 -6.63868401 -3.79353372 0 0 Z M-16 5 C-17.61523451 9.84570352 -17.6568638 14.18396478 -15.9375 18.9375 C-14.0414693 21.28300978 -14.0414693 21.28300978 -10.625 22.125 C-6.84491734 22.36359231 -6.84491734 22.36359231 -4.125 19.625 C-3.42375 18.75875 -2.7225 17.8925 -2 17 C-1.67 16.67 -1.34 16.34 -1 16 C-1.06478516 13.9590495 -1.06478516 13.9590495 -1.375 11.625 C-1.51035156 10.43777344 -1.51035156 10.43777344 -1.6484375 9.2265625 C-1.96339554 6.83581507 -1.96339554 6.83581507 -3 4 C-7.11552568 1.94223716 -12.27199094 2.27568569 -16 5 Z " fill="#FDFBFB" transform="translate(376,830)"/>
<path d="M0 0 C2.875 1 2.875 1 5 3 C7.90707029 10.19845976 7.41497328 18.34712063 7 26 C6.67 26.33 6.34 26.66 6 27 C4.02 27 2.04 27 0 27 C0 20.4 0 13.8 0 7 C-6.63019987 6.35284977 -6.63019987 6.35284977 -10 9 C-10.50531866 10.92441415 -10.50531866 10.92441415 -10.51171875 13.1328125 C-10.54716797 13.93847656 -10.58261719 14.74414062 -10.61914062 15.57421875 C-10.64169922 16.41597656 -10.66425781 17.25773438 -10.6875 18.125 C-10.72166016 18.97449219 -10.75582031 19.82398438 -10.79101562 20.69921875 C-10.87359173 22.79901105 -10.93846978 24.89948564 -11 27 C-12.65 27 -14.3 27 -16 27 C-16 18.42 -16 9.84 -16 1 C-14.02 1 -12.04 1 -10 1 C-6.79599186 -0.60200407 -3.48356386 -0.34768776 0 0 Z " fill="#FDFBFB" transform="translate(990,828)"/>
<path d="M0 0 C2.875 1 2.875 1 5 3 C7.90707029 10.19845976 7.41497328 18.34712063 7 26 C6.67 26.33 6.34 26.66 6 27 C4.02 27 2.04 27 0 27 C0 20.4 0 13.8 0 7 C-6.63019987 6.35284977 -6.63019987 6.35284977 -10 9 C-10.50531866 10.92441415 -10.50531866 10.92441415 -10.51171875 13.1328125 C-10.54716797 13.93847656 -10.58261719 14.74414062 -10.61914062 15.57421875 C-10.64169922 16.41597656 -10.66425781 17.25773438 -10.6875 18.125 C-10.72166016 18.97449219 -10.75582031 19.82398438 -10.79101562 20.69921875 C-10.87359173 22.79901105 -10.93846978 24.89948564 -11 27 C-12.65 27 -14.3 27 -16 27 C-16 18.42 -16 9.84 -16 1 C-14.02 1 -12.04 1 -10 1 C-6.79599186 -0.60200407 -3.48356386 -0.34768776 0 0 Z " fill="#FDFBFB" transform="translate(775,828)"/>
<path d="M0 0 C1.98 0 3.96 0 6 0 C6.33 6.93 6.66 13.86 7 21 C10.3 20.34 13.6 19.68 17 19 C17 12.73 17 6.46 17 0 C18.65 0 20.3 0 22 0 C22 8.58 22 17.16 22 26 C19.463125 26.268125 16.92625 26.53625 14.3125 26.8125 C13.52270752 26.91022705 12.73291504 27.0079541 11.91918945 27.10864258 C7.83135371 27.44925249 6.28056119 27.22422658 3.04296875 24.63671875 C0.38363871 21.20450503 -0.1245493 19.67878969 -0.09765625 15.4296875 C-0.09443359 14.53378906 -0.09121094 13.63789062 -0.08789062 12.71484375 C-0.07951172 11.77769531 -0.07113281 10.84054687 -0.0625 9.875 C-0.05798828 8.93011719 -0.05347656 7.98523438 -0.04882812 7.01171875 C-0.03702357 4.67441613 -0.02055759 2.33723939 0 0 Z " fill="#FDFBFB" transform="translate(630,829)"/>
<path d="M0 0 C1.98 0 3.96 0 6 0 C6.33 6.93 6.66 13.86 7 21 C10.3 20.34 13.6 19.68 17 19 C17 12.73 17 6.46 17 0 C18.65 0 20.3 0 22 0 C22 8.58 22 17.16 22 26 C19.463125 26.268125 16.92625 26.53625 14.3125 26.8125 C13.52270752 26.91022705 12.73291504 27.0079541 11.91918945 27.10864258 C7.83135371 27.44925249 6.28056119 27.22422658 3.04296875 24.63671875 C0.38363871 21.20450503 -0.1245493 19.67878969 -0.09765625 15.4296875 C-0.09443359 14.53378906 -0.09121094 13.63789062 -0.08789062 12.71484375 C-0.07951172 11.77769531 -0.07113281 10.84054687 -0.0625 9.875 C-0.05798828 8.93011719 -0.05347656 7.98523438 -0.04882812 7.01171875 C-0.03702357 4.67441613 -0.02055759 2.33723939 0 0 Z " fill="#FDFBFB" transform="translate(277,829)"/>
<path d="M0 0 C0.66 0.5775 1.32 1.155 2 1.75 C2 3.07 2 4.39 2 5.75 C-2.29 5.42 -6.58 5.09 -11 4.75 C-12.75885572 12.32278443 -12.75885572 12.32278443 -10.83984375 19.51171875 C-8.19425152 21.29229781 -6.42784584 20.8406624 -3.3125 20.4375 C-2.31863281 20.31761719 -1.32476563 20.19773437 -0.30078125 20.07421875 C0.45847656 19.96722656 1.21773437 19.86023438 2 19.75 C1.75 22.125 1.75 22.125 1 24.75 C-2.89221719 27.56908947 -7.39694689 27.29250269 -12 26.75 C-15.63467079 25.12599816 -16.77408696 24.08886956 -19 20.75 C-20.70130534 14.37969879 -19.97001659 8.6193185 -17 2.75 C-12.65685062 -2.42837042 -5.8939572 -2.4558155 0 0 Z " fill="#FDFBFB" transform="translate(601,829.25)"/>
<path d="M0 0 C0.66 0.5775 1.32 1.155 2 1.75 C2 3.07 2 4.39 2 5.75 C-2.29 5.42 -6.58 5.09 -11 4.75 C-12.75885572 12.32278443 -12.75885572 12.32278443 -10.83984375 19.51171875 C-8.19425152 21.29229781 -6.42784584 20.8406624 -3.3125 20.4375 C-2.31863281 20.31761719 -1.32476562 20.19773437 -0.30078125 20.07421875 C0.45847656 19.96722656 1.21773438 19.86023438 2 19.75 C1.75 22.125 1.75 22.125 1 24.75 C-2.89221719 27.56908947 -7.39694689 27.29250269 -12 26.75 C-15.63467079 25.12599816 -16.77408696 24.08886956 -19 20.75 C-20.70130534 14.37969879 -19.97001659 8.6193185 -17 2.75 C-12.65685062 -2.42837042 -5.8939572 -2.4558155 0 0 Z " fill="#FDFBFB" transform="translate(476,829.25)"/>
<path d="M0 0 C0.99 0.66 1.98 1.32 3 2 C3 3.32 3 4.64 3 6 C0.03 6 -2.94 6 -6 6 C-6.33 7.32 -6.66 8.64 -7 10 C-5.6696875 10.4021875 -5.6696875 10.4021875 -4.3125 10.8125 C1.81745236 13.01003009 1.81745236 13.01003009 4 15 C4.60932601 18.07537183 4.66646065 20.934281 4 24 C2.07571836 26.46129047 1.04108148 26.98630617 -2 28 C-10.4 28.4 -10.4 28.4 -14 26 C-14 24.68 -14 23.36 -14 22 C-10.7 22 -7.4 22 -4 22 C-3.67 21.34 -3.34 20.68 -3 20 C-6.02565098 16.74160664 -9.26926887 14.40424895 -13 12 C-13.33 11.67 -13.66 11.34 -14 11 C-13.76589304 3.74268416 -13.76589304 3.74268416 -10.9375 1 C-6.98902874 -0.34416043 -4.17327785 -0.33655467 0 0 Z " fill="#FDFBFB" transform="translate(917,828)"/>
<path d="M0 0 C1.32 0 2.64 0 4 0 C4 2.31 4 4.62 4 7 C6.64 7 9.28 7 12 7 C12 7.99 12 8.98 12 10 C9.69 10 7.38 10 5 10 C5 16.27 5 22.54 5 29 C7.31 29 9.62 29 12 29 C11.505 31.475 11.505 31.475 11 34 C5.70362331 34.34730339 5.70362331 34.34730339 3 34 C0.33652554 31.50836261 -0.89310094 28.79015696 -1.11352539 25.09887695 C-1.10567017 24.05413208 -1.10567017 24.05413208 -1.09765625 22.98828125 C-1.09282227 21.85229492 -1.09282227 21.85229492 -1.08789062 20.69335938 C-1.07951172 19.90767578 -1.07113281 19.12199219 -1.0625 18.3125 C-1.05798828 17.51521484 -1.05347656 16.71792969 -1.04882812 15.89648438 C-1.0370585 13.93095743 -1.01912348 11.96546915 -1 10 C-1.99 10 -2.98 10 -4 10 C-4 9.01 -4 8.02 -4 7 C-2.68 7 -1.36 7 0 7 C0 4.69 0 2.38 0 0 Z " fill="#FDFBFB" transform="translate(611,822)"/>
<path d="M0 0 C1.32 0 2.64 0 4 0 C4 2.31 4 4.62 4 7 C6.64 7 9.28 7 12 7 C12 7.99 12 8.98 12 10 C9.69 10 7.38 10 5 10 C5 16.27 5 22.54 5 29 C7.31 29 9.62 29 12 29 C11.505 31.475 11.505 31.475 11 34 C5.70362331 34.34730339 5.70362331 34.34730339 3 34 C0.33652554 31.50836261 -0.89310094 28.79015696 -1.11352539 25.09887695 C-1.10567017 24.05413208 -1.10567017 24.05413208 -1.09765625 22.98828125 C-1.09282227 21.85229492 -1.09282227 21.85229492 -1.08789062 20.69335938 C-1.07951172 19.90767578 -1.07113281 19.12199219 -1.0625 18.3125 C-1.05798828 17.51521484 -1.05347656 16.71792969 -1.04882812 15.89648438 C-1.0370585 13.93095743 -1.01912348 11.96546915 -1 10 C-1.99 10 -2.98 10 -4 10 C-4 9.01 -4 8.02 -4 7 C-2.68 7 -1.36 7 0 7 C0 4.69 0 2.38 0 0 Z " fill="#FDFBFB" transform="translate(534,822)"/>
<path d="M0 0 C1.32 0 2.64 0 4 0 C4 2.31 4 4.62 4 7 C6.64 7 9.28 7 12 7 C12 7.99 12 8.98 12 10 C9.69 10 7.38 10 5 10 C5 16.27 5 22.54 5 29 C7.31 29 9.62 29 12 29 C11.505 31.475 11.505 31.475 11 34 C5.70362331 34.34730339 5.70362331 34.34730339 3 34 C0.33652554 31.50836261 -0.89310094 28.79015696 -1.11352539 25.09887695 C-1.10567017 24.05413208 -1.10567017 24.05413208 -1.09765625 22.98828125 C-1.09282227 21.85229492 -1.09282227 21.85229492 -1.08789062 20.69335938 C-1.07951172 19.90767578 -1.07113281 19.12199219 -1.0625 18.3125 C-1.05798828 17.51521484 -1.05347656 16.71792969 -1.04882812 15.89648438 C-1.0370585 13.93095743 -1.01912348 11.96546915 -1 10 C-1.99 10 -2.98 10 -4 10 C-4 9.01 -4 8.02 -4 7 C-2.68 7 -1.36 7 0 7 C0 4.69 0 2.38 0 0 Z " fill="#FDFBFB" transform="translate(258,822)"/>
<path d="M0 0 C2.05078125 0.03255208 4.1015625 0.06510417 6.15234375 0.09765625 C6.15234375 1.74765625 6.15234375 3.39765625 6.15234375 5.09765625 C5.03859375 5.34515625 3.92484375 5.59265625 2.77734375 5.84765625 C-0.77897569 6.69317587 -0.77897569 6.69317587 -2.03515625 8.69140625 C-3.16420988 12.035142 -3.31405212 15.35175691 -3.47265625 18.84765625 C-3.51132812 19.54503906 -3.55 20.24242187 -3.58984375 20.9609375 C-3.68364249 22.67276443 -3.76671799 24.38517307 -3.84765625 26.09765625 C-5.49765625 26.42765625 -7.14765625 26.75765625 -8.84765625 27.09765625 C-8.84765625 18.51765625 -8.84765625 9.93765625 -8.84765625 1.09765625 C-6.86765625 1.09765625 -4.88765625 1.09765625 -2.84765625 1.09765625 C-1.84765625 0.09765625 -1.84765625 0.09765625 0 0 Z " fill="#FDFBFB" transform="translate(671.84765625,827.90234375)"/>
<path d="M0 0 C2.05078125 0.03255208 4.1015625 0.06510417 6.15234375 0.09765625 C6.15234375 1.74765625 6.15234375 3.39765625 6.15234375 5.09765625 C5.03859375 5.34515625 3.92484375 5.59265625 2.77734375 5.84765625 C-0.77897569 6.69317587 -0.77897569 6.69317587 -2.03515625 8.69140625 C-3.16420988 12.035142 -3.31405212 15.35175691 -3.47265625 18.84765625 C-3.51132812 19.54503906 -3.55 20.24242187 -3.58984375 20.9609375 C-3.68364249 22.67276443 -3.76671799 24.38517307 -3.84765625 26.09765625 C-5.49765625 26.42765625 -7.14765625 26.75765625 -8.84765625 27.09765625 C-8.84765625 18.51765625 -8.84765625 9.93765625 -8.84765625 1.09765625 C-6.86765625 1.09765625 -4.88765625 1.09765625 -2.84765625 1.09765625 C-1.84765625 0.09765625 -1.84765625 0.09765625 0 0 Z " fill="#FDFBFB" transform="translate(446.84765625,827.90234375)"/>
<path d="M0 0 C1.32 0 2.64 0 4 0 C4 8.58 4 17.16 4 26 C2.68 26 1.36 26 0 26 C0 17.42 0 8.84 0 0 Z " fill="#FDFBFB" transform="translate(930,829)"/>
<path d="M0 0 C1.32 0 2.64 0 4 0 C4 8.58 4 17.16 4 26 C2.68 26 1.36 26 0 26 C0 17.42 0 8.84 0 0 Z " fill="#FDFBFB" transform="translate(518,829)"/>
<path d="M0 0 C1.32 0 2.64 0 4 0 C4 8.58 4 17.16 4 26 C2.68 26 1.36 26 0 26 C0 17.42 0 8.84 0 0 Z " fill="#FDFBFB" transform="translate(342,829)"/>
<path d="M0 0 C1.65 0 3.3 0 5 0 C5 1.65 5 3.3 5 5 C3.35 5 1.7 5 0 5 C0 3.35 0 1.7 0 0 Z " fill="#FDFBFB" transform="translate(930,819)"/>
<path d="M0 0 C1.65 0 3.3 0 5 0 C5 1.65 5 3.3 5 5 C3.35 5 1.7 5 0 5 C0 3.35 0 1.7 0 0 Z " fill="#FDFBFB" transform="translate(518,819)"/>
<path d="M0 0 C1.65 0 3.3 0 5 0 C5 1.65 5 3.3 5 5 C3.35 5 1.7 5 0 5 C0 3.35 0 1.7 0 0 Z " fill="#FDFBFB" transform="translate(342,819)"/>
</svg>
